<svg xmlns="http://www.w3.org/2000/svg" width="32.005" height="32.005" viewBox="0 0 32.005 32.005"><defs><style>.a{fill:#8e9ab8;}</style></defs><path class="a" d="M291.257,508.668q-.2.033-.4.06Q291.057,508.7,291.257,508.668Zm0,0" transform="translate(-272.674 -476.871)"/><path class="a" d="M299.531,507.793l-.191.033Zm0,0" transform="translate(-280.628 -476.051)"/><path class="a" d="M278.08,510.34q-.234.026-.47.046Q277.846,510.366,278.08,510.34Zm0,0" transform="translate(-260.256 -478.439)"/><path class="a" d="M286.671,509.738l-.226.028Zm0,0" transform="translate(-268.54 -477.875)"/><path class="a" d="M306.833,506.41l-.169.035Zm0,0" transform="translate(-287.495 -474.755)"/><path class="a" d="M324.621,502.113l-.136.038Zm0,0" transform="translate(-304.201 -470.726)"/><path class="a" d="M319.207,503.543l-.148.039Zm0,0" transform="translate(-299.114 -472.067)"/><path class="a" d="M312.224,505.254l-.158.035Zm0,0" transform="translate(-292.559 -473.671)"/><path class="a" d="M273.733,511.09l-.253.019Zm0,0" transform="translate(-256.385 -479.142)"/><path class="a" d="M32,16A16,16,0,1,0,16,32c.094,0,.188,0,.281,0V19.544H12.846V15.537h3.438V12.589c0-3.419,2.087-5.281,5.138-5.281a28.3,28.3,0,0,1,3.082.157V11.04H22.4c-1.659,0-1.981.789-1.981,1.946v2.552h3.968l-.517,4.007H20.42V31.387A16.011,16.011,0,0,0,32,16Zm0,0"/><path class="a" d="M265.392,511.43q-.25.016-.5.025Q265.142,511.446,265.392,511.43Zm0,0" transform="translate(-248.332 -479.461)"/><path class="a" d="M260.77,511.836l-.266.007Zm0,0" transform="translate(-244.22 -479.841)"/></svg>