<svg xmlns="http://www.w3.org/2000/svg" width="32" height="32" viewBox="0 0 32 32"><defs><style>.a{fill:#8e9ab8;}</style></defs><path class="a" d="M213.127,210.063A3.063,3.063,0,1,1,210.063,207,3.063,3.063,0,0,1,213.127,210.063Zm0,0" transform="translate(-194.063 -194.063)"/><path class="a" d="M150.183,137.6a3.043,3.043,0,0,0-1.744-1.744,5.084,5.084,0,0,0-1.706-.316c-.969-.044-1.26-.054-3.714-.054s-2.745.009-3.714.053a5.088,5.088,0,0,0-1.706.317,3.045,3.045,0,0,0-1.744,1.744,5.087,5.087,0,0,0-.316,1.707c-.044.969-.054,1.26-.054,3.714s.01,2.744.054,3.714a5.085,5.085,0,0,0,.316,1.706,3.043,3.043,0,0,0,1.744,1.744,5.079,5.079,0,0,0,1.707.317c.969.044,1.259.053,3.714.053s2.745-.009,3.714-.053a5.079,5.079,0,0,0,1.707-.317,3.043,3.043,0,0,0,1.744-1.744,5.09,5.09,0,0,0,.317-1.706c.044-.969.053-1.26.053-3.714s-.009-2.745-.053-3.714A5.078,5.078,0,0,0,150.183,137.6Zm-7.164,10.139a4.719,4.719,0,1,1,4.719-4.719A4.719,4.719,0,0,1,143.019,147.742Zm4.906-8.522a1.1,1.1,0,1,1,1.1-1.1A1.1,1.1,0,0,1,147.925,139.22Zm0,0" transform="translate(-127.019 -127.023)"/><path class="a" d="M16,0A16,16,0,1,0,32,16,16,16,0,0,0,16,0Zm9.132,19.788a6.741,6.741,0,0,1-.427,2.23,4.7,4.7,0,0,1-2.687,2.687,6.745,6.745,0,0,1-2.23.427c-.98.045-1.293.055-3.788.055s-2.808-.011-3.788-.055a6.745,6.745,0,0,1-2.23-.427A4.7,4.7,0,0,1,7.3,22.018a6.739,6.739,0,0,1-.427-2.23c-.045-.98-.056-1.293-.056-3.788s.01-2.808.055-3.788a6.741,6.741,0,0,1,.427-2.23A4.7,4.7,0,0,1,9.982,7.295a6.747,6.747,0,0,1,2.23-.427c.98-.045,1.293-.055,3.788-.055s2.808.011,3.788.056a6.748,6.748,0,0,1,2.23.427,4.7,4.7,0,0,1,2.687,2.687,6.74,6.74,0,0,1,.427,2.23c.045.98.055,1.293.055,3.788S25.177,18.808,25.132,19.788Zm0,0"/></svg>