<svg xmlns="http://www.w3.org/2000/svg" width="113.291" height="43.548" viewBox="0 0 113.291 43.548"><defs><style>.a,.b{fill:#55c2e5;}.b{opacity:0.3;}</style></defs><g transform="translate(-14.17 -14.75)"><g transform="translate(14.17 21.646)"><path class="a" d="M14.17,51.127a1.973,1.973,0,0,1,1.967-2,2.2,2.2,0,0,1,1.519.622A6.863,6.863,0,0,0,22.7,51.784c3.419,0,5.768-2.176,5.768-4.663,0-2.176-1.763-3.73-4.734-3.73a13.492,13.492,0,0,0-3.521.724,2.8,2.8,0,0,1-1.865-.657,1.768,1.768,0,0,1-.586-2l2.9-8.739a2.1,2.1,0,0,1,2.074-1.656H33.1a1.917,1.917,0,0,1,1.9,1.9,1.884,1.884,0,0,1-1.9,1.865H23.979l-1.83,5.56a10.1,10.1,0,0,1,3.108-.551c4.525,0,7.6,2.66,7.6,6.874,0,4.7-4.143,8.912-10.5,8.912a11.139,11.139,0,0,1-7.322-2.762A2.359,2.359,0,0,1,14.17,51.127Z" transform="translate(-14.17 -30.714)"/><path class="a" d="M75.584,31.06c4.423,0,7.531,1.208,9.463,3.144a9.457,9.457,0,0,1,2.624,7.047,13.2,13.2,0,0,1-3.9,9.463c-2.9,2.9-7.149,4.525-12.571,4.525H64.98c-1.381,0-2.176-1.035-1.727-2.7L68.435,33.2a2.575,2.575,0,0,1,2.416-2.14ZM71.712,51.367a12.305,12.305,0,0,0,8.841-3.282,9.253,9.253,0,0,0,2.7-6.665,6.063,6.063,0,0,0-1.692-4.454c-1.279-1.279-3.348-2.038-6.288-2.038H72.263L67.813,51.367Z" transform="translate(-41.388 -30.714)"/><path class="a" d="M203.146,52.949a2.442,2.442,0,0,1-2.349,2.074c-1.381,0-2.14-1-1.692-2.726l4.7-17.371-2.66.724a3.7,3.7,0,0,1-.622.071,1.67,1.67,0,0,1-1.692-1.763,2.006,2.006,0,0,1,1.519-1.9l4.423-1.314a8.111,8.111,0,0,1,2.176-.382h.036a1.644,1.644,0,0,1,1.625,2.278Z" transform="translate(-116.831 -30.324)"/><path class="a" d="M223.038,54.8c-1.314,0-2.278-.622-2.278-1.865a2.307,2.307,0,0,1,1.106-1.967L234.2,42.092c2.487-1.794,3.73-3.246,3.73-5.009,0-1.829-1.381-2.971-3.659-2.971a7.686,7.686,0,0,0-5.111,2.211,2.215,2.215,0,0,1-1.483.657,1.9,1.9,0,0,1-1.9-1.936,2.118,2.118,0,0,1,.724-1.519,11.488,11.488,0,0,1,7.944-3.246c4.734,0,7.873,2.624,7.873,6.39,0,2.935-1.519,5.076-5.493,7.909l-8.983,6.492h9.116a1.865,1.865,0,1,1,0,3.73H223.038Z" transform="translate(-129.023 -30.28)"/></g><path class="b" d="M140.59,40.793a5.623,5.623,0,0,0-7.3-.821,5.617,5.617,0,0,0-7.3.821,6.2,6.2,0,0,0,0,8.353l6.075,6.457a.244.244,0,0,0,.04.031.245.245,0,0,1,.031.04c.036.031.075.058.111.084s.075.062.115.089a1.3,1.3,0,0,0,.173.093,1,1,0,0,0,.12.058c.067.027.138.044.209.067.036.009.067.022.1.027a1.56,1.56,0,0,0,.32.031h0a1.949,1.949,0,0,0,.32-.031.628.628,0,0,0,.1-.027,1.142,1.142,0,0,0,.209-.067c.04-.018.08-.04.12-.058.058-.031.115-.058.173-.093a1.136,1.136,0,0,0,.115-.089c.036-.031.075-.053.111-.084a.243.243,0,0,0,.031-.04.244.244,0,0,1,.04-.031l6.079-6.457A6.188,6.188,0,0,0,140.59,40.793Z" transform="translate(-61.268 -13.476)"/><g transform="translate(60.181 14.751)"><path class="a" d="M130.452,53.068H128.8A19.968,19.968,0,0,1,118.36,48.8a1.53,1.53,0,0,1-.182-2.229,1.485,1.485,0,0,1,2.2-.187,16.8,16.8,0,0,0,8.615,3.53A15.537,15.537,0,0,0,140.536,46.2a15.844,15.844,0,0,0,5.5-10.955,16.075,16.075,0,0,0-14.476-17.269A15.694,15.694,0,0,0,121.3,20.758a1.508,1.508,0,0,1-2.2-.373,1.552,1.552,0,0,1,.369-2.229,19.012,19.012,0,0,1,22.9,30.267A17.13,17.13,0,0,1,130.452,53.068Z" transform="translate(-117.786 -14.751)"/></g><path class="a" d="M136.664,50.89a1.529,1.529,0,0,1-1.323-.764l-4.7-8.14a1.525,1.525,0,0,1,2.642-1.523l4.7,8.14a1.522,1.522,0,0,1-.56,2.083A1.552,1.552,0,0,1,136.664,50.89Z" transform="translate(-64.639 -13.871)"/><path class="a" d="M142.543,52.147a1.526,1.526,0,0,1-1.523-1.523v-7.14a1.523,1.523,0,1,1,3.046,0v7.136A1.524,1.524,0,0,1,142.543,52.147Z" transform="translate(-70.522 -15.127)"/><g transform="translate(78.496 49.062)"><path class="a" d="M195.141,96.953a.4.4,0,0,1-.373.333c-.222,0-.342-.16-.266-.431l.613-2.282a.4.4,0,0,1,.373-.333h.822a1.288,1.288,0,0,1,.959.3.842.842,0,0,1,.231.608.981.981,0,0,1-.275.715,1.408,1.408,0,0,1-.662.355l.373.551a.347.347,0,0,1,.075.213.306.306,0,0,1-.324.3.414.414,0,0,1-.386-.222l-.48-.773h-.5Zm.928-1.248a.863.863,0,0,0,.608-.2.429.429,0,0,0,.124-.306.318.318,0,0,0-.093-.24.626.626,0,0,0-.44-.124h-.555l-.231.866Z" transform="translate(-178.738 -93.254)"/><path class="a" d="M201.858,97.26c-.222,0-.342-.16-.266-.431l.6-2.256a.4.4,0,0,1,.373-.333h1.621a.3.3,0,0,1,.3.3.294.294,0,0,1-.3.293h-1.4l-.164.617h1.048a.294.294,0,0,1,.3.293.29.29,0,0,1-.3.289h-1.208l-.173.639h1.27a.3.3,0,0,1,.3.3.294.294,0,0,1-.3.293h-1.7Z" transform="translate(-182.679 -93.254)"/><path class="a" d="M209.853,94.822h-1.208a.292.292,0,0,1-.293-.289.3.3,0,0,1,.293-.293h1.923a.254.254,0,0,1,.289.258v.009a.488.488,0,0,1-.182.329l-2.025,1.843h1.279a.3.3,0,0,1,.293.293.292.292,0,0,1-.293.289h-1.989A.254.254,0,0,1,207.65,97v-.009a.488.488,0,0,1,.182-.329Z" transform="translate(-186.06 -93.254)"/><path class="a" d="M215.028,97.26c-.222,0-.342-.16-.266-.431l.6-2.256a.4.4,0,0,1,.373-.333h1.621a.3.3,0,0,1,.3.3.294.294,0,0,1-.3.293h-1.4l-.164.617h1.048a.294.294,0,0,1,.3.293.29.29,0,0,1-.3.289h-1.208l-.173.639h1.27a.3.3,0,0,1,.3.3.294.294,0,0,1-.3.293h-1.7Z" transform="translate(-190.001 -93.254)"/><path class="a" d="M221.841,96.953a.4.4,0,0,1-.373.333c-.222,0-.342-.16-.266-.431l.613-2.282a.4.4,0,0,1,.373-.333h.822a1.288,1.288,0,0,1,.959.3.842.842,0,0,1,.231.608.981.981,0,0,1-.275.715,1.408,1.408,0,0,1-.662.355l.373.551a.347.347,0,0,1,.075.213.306.306,0,0,1-.324.3.414.414,0,0,1-.386-.222l-.48-.773h-.5Zm.928-1.248a.863.863,0,0,0,.608-.2.429.429,0,0,0,.124-.306.318.318,0,0,0-.093-.24.626.626,0,0,0-.44-.124h-.555l-.231.866Z" transform="translate(-193.582 -93.254)"/><path class="a" d="M230.1,96.993a.516.516,0,0,1-.44.266h-.031c-.182,0-.28-.093-.311-.293l-.346-2.345a.959.959,0,0,1-.013-.155.314.314,0,0,1,.351-.3.319.319,0,0,1,.351.306l.222,1.825,1.266-1.923a.4.4,0,0,1,.346-.213c.173,0,.3.08.3.244a.39.39,0,0,1-.062.191Z" transform="translate(-197.907 -93.21)"/><path class="a" d="M235.821,96.92a.4.4,0,0,1-.373.333c-.222,0-.342-.16-.266-.431l.622-2.309a.4.4,0,0,1,.373-.333c.222,0,.342.16.266.431Z" transform="translate(-201.354 -93.221)"/><path class="a" d="M239.851,95.168c0-.147-.107-.231-.515-.4-.391-.16-.742-.373-.742-.817a1.078,1.078,0,0,1,1.2-1,1.486,1.486,0,0,1,.919.266.323.323,0,0,1-.173.6.279.279,0,0,1-.182-.058.929.929,0,0,0-.617-.231c-.28,0-.44.155-.44.306s.12.231.533.4.724.377.724.817a1.081,1.081,0,0,1-1.2,1.008,1.725,1.725,0,0,1-1.119-.346.355.355,0,0,1-.129-.275.324.324,0,0,1,.324-.337.391.391,0,0,1,.213.08,1.027,1.027,0,0,0,.742.293C239.655,95.484,239.851,95.359,239.851,95.168Zm-.426-2.909a.366.366,0,0,1-.058-.138c0-.071.067-.1.147-.1a.433.433,0,0,1,.382.142l.155.169.244-.169a.672.672,0,0,1,.409-.142c.08,0,.138.036.138.1a.2.2,0,0,1-.075.138l-.355.342a.461.461,0,0,1-.337.147h-.191a.313.313,0,0,1-.3-.164Z" transform="translate(-202.994 -92.02)"/><path class="a" d="M245.271,96.92a.4.4,0,0,1-.373.333c-.222,0-.342-.16-.266-.431l.622-2.309a.4.4,0,0,1,.373-.333c.222,0,.342.16.266.431Z" transform="translate(-206.607 -93.221)"/><path class="a" d="M249.535,96.953a.4.4,0,0,1-.373.333c-.222,0-.342-.16-.266-.431l.542-2h-.551a.306.306,0,0,1,0-.613h1.936a.306.306,0,0,1,0,.613H250.1Z" transform="translate(-208.815 -93.254)"/><path class="a" d="M254.148,97.26c-.222,0-.342-.16-.266-.431l.6-2.256a.4.4,0,0,1,.373-.333h1.621a.3.3,0,0,1,.3.3.294.294,0,0,1-.3.293h-1.4l-.164.617h1.048a.294.294,0,0,1,.3.293.29.29,0,0,1-.3.289h-1.208l-.173.639h1.27a.3.3,0,0,1,.3.3.294.294,0,0,1-.3.293h-1.7Z" transform="translate(-211.75 -93.254)"/><path class="a" d="M161.233,106.482h-1.208a.292.292,0,0,1-.293-.289.3.3,0,0,1,.293-.293h1.923a.254.254,0,0,1,.289.258v.009a.488.488,0,0,1-.182.329l-2.025,1.843h1.279a.3.3,0,0,1,.293.293.292.292,0,0,1-.293.289h-1.989a.254.254,0,0,1-.289-.258v-.009a.488.488,0,0,1,.182-.329Z" transform="translate(-159.03 -99.737)"/><path class="a" d="M167.708,105.894a1.6,1.6,0,0,1,1.181.386,1.186,1.186,0,0,1,.329.884,1.655,1.655,0,0,1-.5,1.19,2.136,2.136,0,0,1-1.585.555H166.4c-.222,0-.342-.16-.266-.431l.6-2.256a.4.4,0,0,1,.373-.333h.6Zm-.488,2.425a1.4,1.4,0,0,0,1.008-.369,1.053,1.053,0,0,0,.3-.755.654.654,0,0,0-.178-.48.951.951,0,0,0-.7-.222h-.324l-.493,1.821h.382Z" transform="translate(-162.966 -99.731)"/><path class="a" d="M174.311,108.623a.4.4,0,0,1-.373.333c-.222,0-.342-.16-.266-.431l.613-2.282a.4.4,0,0,1,.373-.333h.822a1.288,1.288,0,0,1,.959.3.842.842,0,0,1,.231.608.981.981,0,0,1-.275.715,1.408,1.408,0,0,1-.662.355l.373.551a.347.347,0,0,1,.076.213.306.306,0,0,1-.324.3.414.414,0,0,1-.386-.222l-.48-.773h-.5Zm.928-1.248a.863.863,0,0,0,.608-.2.429.429,0,0,0,.124-.306.318.318,0,0,0-.093-.24.626.626,0,0,0-.44-.124h-.555l-.231.866Z" transform="translate(-167.157 -99.742)"/><path class="a" d="M183.2,108.408a1.539,1.539,0,0,1,.022.173.327.327,0,0,1-.342.32.3.3,0,0,1-.324-.262l-.071-.44h-1.337l-.346.5a.432.432,0,0,1-.337.209.244.244,0,0,1-.271-.258.4.4,0,0,1,.075-.222l1.679-2.358a.539.539,0,0,1,.466-.258h.013a.335.335,0,0,1,.364.315Zm-.808-.8-.155-1-.684,1Z" transform="translate(-170.794 -99.687)"/><path class="a" d="M189.271,108.663a.516.516,0,0,1-.44.266H188.8c-.182,0-.28-.093-.311-.293l-.346-2.345a.959.959,0,0,1-.013-.155.314.314,0,0,1,.351-.3.319.319,0,0,1,.351.306l.222,1.825,1.266-1.923a.4.4,0,0,1,.346-.213c.173,0,.3.08.3.244a.39.39,0,0,1-.062.191Z" transform="translate(-175.208 -99.698)"/><path class="a" d="M194.578,108.9c-.222,0-.342-.16-.266-.431l.613-2.282a.4.4,0,0,1,.373-.333c.222,0,.342.16.266.431l-.542,2.012h1.155a.3.3,0,0,1,0,.6Z" transform="translate(-178.632 -99.709)"/><path class="a" d="M202.1,107.687a1.81,1.81,0,0,1-.44.919,1.328,1.328,0,0,1-1.674.053.353.353,0,0,1-.12-.253.314.314,0,0,1,.311-.32.342.342,0,0,1,.226.089.611.611,0,0,0,.808-.031c.093-.093.155-.213.262-.617l.364-1.354a.4.4,0,0,1,.373-.333c.222,0,.342.16.266.431Z" transform="translate(-181.735 -99.703)"/><path class="a" d="M206.258,108.93c-.222,0-.342-.16-.266-.431l.6-2.256a.4.4,0,0,1,.373-.333h1.621a.3.3,0,0,1,.3.3.294.294,0,0,1-.3.293h-1.4l-.164.617h1.048a.294.294,0,0,1,.3.293.29.29,0,0,1-.3.289h-1.208l-.173.639h1.27a.3.3,0,0,1,.3.3.294.294,0,0,1-.3.293h-1.7Z" transform="translate(-185.126 -99.742)"/><path class="a" d="M218.434,107.675a1.889,1.889,0,0,1-.466.9,1.376,1.376,0,0,1-1.026.373,1,1,0,0,1-1.132-1.017,1.95,1.95,0,0,1,.075-.484l.337-1.261a.4.4,0,0,1,.373-.333c.222,0,.342.16.266.431l-.329,1.221a1.246,1.246,0,0,0-.049.329.476.476,0,0,0,.528.5.684.684,0,0,0,.493-.191,1.194,1.194,0,0,0,.293-.56l.377-1.4a.4.4,0,0,1,.373-.333c.222,0,.342.16.266.431Z" transform="translate(-190.597 -99.709)"/><path class="a" d="M227.395,108.623a.4.4,0,0,1-.373.333c-.222,0-.342-.16-.266-.431l.542-2h-.551a.306.306,0,0,1,0-.613h1.936a.306.306,0,1,1,0,.613h-.719Z" transform="translate(-196.506 -99.742)"/><path class="a" d="M232.361,108.623a.4.4,0,0,1-.373.333c-.222,0-.342-.16-.266-.431l.613-2.282a.4.4,0,0,1,.373-.333h.822a1.288,1.288,0,0,1,.959.3.842.842,0,0,1,.231.608.981.981,0,0,1-.275.715,1.408,1.408,0,0,1-.662.355l.373.551a.347.347,0,0,1,.075.213.306.306,0,0,1-.324.3.414.414,0,0,1-.386-.222l-.48-.773h-.5Zm.928-1.248a.863.863,0,0,0,.608-.2.429.429,0,0,0,.124-.306.318.318,0,0,0-.093-.24.626.626,0,0,0-.44-.124h-.555l-.231.866Z" transform="translate(-199.43 -99.742)"/><path class="a" d="M239.078,108.93c-.222,0-.342-.16-.266-.431l.6-2.256a.4.4,0,0,1,.373-.333h1.621a.3.3,0,0,1,.3.3.294.294,0,0,1-.3.293h-1.4l-.164.617h1.048a.294.294,0,0,1,.3.293.29.29,0,0,1-.3.289h-1.208l-.173.639h1.27a.3.3,0,0,1,.3.3.294.294,0,0,1-.3.293h-1.7Z" transform="translate(-203.372 -99.742)"/><path class="a" d="M247.879,106.173a.391.391,0,0,1,.369-.333c.222,0,.337.16.262.431l-.626,2.322a.355.355,0,0,1-.36.311h-.013a.368.368,0,0,1-.382-.249l-.808-1.75-.448,1.674a.391.391,0,0,1-.369.333c-.222,0-.337-.16-.262-.431l.617-2.3a.4.4,0,0,1,.391-.333h.031a.4.4,0,0,1,.391.262l.768,1.674Z" transform="translate(-206.946 -99.703)"/><path class="a" d="M255.974,107.675a1.889,1.889,0,0,1-.466.9,1.376,1.376,0,0,1-1.026.373,1,1,0,0,1-1.132-1.017,1.95,1.95,0,0,1,.076-.484l.337-1.261a.4.4,0,0,1,.373-.333c.222,0,.342.16.266.431l-.329,1.221a1.246,1.246,0,0,0-.049.329.476.476,0,0,0,.528.5.684.684,0,0,0,.493-.191,1.194,1.194,0,0,0,.293-.56l.377-1.4a.4.4,0,0,1,.373-.333c.222,0,.342.16.266.431Z" transform="translate(-211.467 -99.709)"/></g></g></svg>