<svg xmlns="http://www.w3.org/2000/svg" width="90" height="89" viewBox="0 0 90 89"><defs><style>.a{fill:#f4ec7a;}.b{fill:#38648c;}.c{opacity:0.1;}.d{fill:#f28b74;}.e{opacity:0.2;}.f{fill:#fff;}.g{fill:#495059;}.h{fill:#f5d7b7;}</style></defs><g transform="translate(0.058 -0.362)"><rect class="a" width="90" height="89" rx="44.5" transform="translate(-0.058 0.362)"/><g transform="translate(34.213 28.137)"><path class="b" d="M144.572,11.525a1.939,1.939,0,0,1-1.939-1.939V1.939a1.939,1.939,0,1,1,3.879,0V9.586A1.939,1.939,0,0,1,144.572,11.525Z" transform="translate(-138.816)"/><path class="c" d="M146.512,10.815V8.5c-2.574.266-2.81-5.078-2.494-7.191a1.94,1.94,0,0,0-1.385,1.858v7.647a1.939,1.939,0,0,0,3.879,0Z" transform="translate(-138.816 -1.229)"/><path class="d" d="M169.763,93.516a1.939,1.939,0,0,1-1.939-1.939,4.352,4.352,0,0,1,3.239-4.173,5.557,5.557,0,0,1,3.591.166,6.8,6.8,0,0,1,3.178,2.644A1.939,1.939,0,1,1,174.6,92.36a2.263,2.263,0,0,0-2.417-1.242c-.145.044-.481.176-.481.459A1.939,1.939,0,0,1,169.763,93.516Z" transform="translate(-162.45 -81.794)"/><path class="e" d="M169.763,93.516a1.939,1.939,0,0,1-1.939-1.939,4.352,4.352,0,0,1,3.239-4.173,5.557,5.557,0,0,1,3.591.166,6.8,6.8,0,0,1,3.178,2.644A1.939,1.939,0,1,1,174.6,92.36a2.263,2.263,0,0,0-2.417-1.242c-.145.044-.481.176-.481.459A1.939,1.939,0,0,1,169.763,93.516Z" transform="translate(-162.45 -81.794)"/><path class="b" d="M282.15,14.918a1.939,1.939,0,0,0-2.182-1.661,6.668,6.668,0,0,0-1.78.517.183.183,0,0,1-.255-.14,1.939,1.939,0,0,0-1.894-1.652,1.977,1.977,0,0,0-1.963,1.982V22.49a1.975,1.975,0,0,0,1.977,1.983,1.939,1.939,0,0,0,1.9-1.939V19.273a1.31,1.31,0,0,1,.327-.867,4.02,4.02,0,0,1,2.208-1.305A1.939,1.939,0,0,0,282.15,14.918Z" transform="translate(-262.135 -11.241)"/><path class="c" d="M276.051,24.781a1.939,1.939,0,0,0,1.9-1.939V20.3c-2.813.208-2.62-6.318-2.213-7.99a1.989,1.989,0,0,0-1.666,1.962V22.8A1.975,1.975,0,0,0,276.051,24.781Z" transform="translate(-262.134 -11.55)"/><g transform="translate(15.81 7.642)"><path class="b" d="M336.7,125.2Z" transform="translate(-336.698 -125.104)"/><path class="b" d="M336.839,123.656h0Z" transform="translate(-336.83 -123.656)"/></g><path class="d" d="M95.734,132.547a6.924,6.924,0,0,0-2.347.356,1.816,1.816,0,0,1-1.623-.233,6.9,6.9,0,0,0-3.98-1.247,7.011,7.011,0,0,0-6.913,7.186c.118,6.775,4.854,10.913,8.408,14.466a6.372,6.372,0,0,0,9.011,0c2.355-2.355,4.21-7.741,4.225-13.526A6.97,6.97,0,0,0,95.734,132.547Z" transform="translate(-80.871 -123.3)"/><g transform="translate(4.203 18.689)"><ellipse class="f" cx="1.938" cy="1.543" rx="1.938" ry="1.543"/><ellipse class="f" cx="1.938" cy="1.543" rx="1.938" ry="1.543" transform="translate(10.504)"/></g><g transform="translate(6.002 17.115)"><path class="g" d="M178.45,278.716a.463.463,0,0,1-.463-.463v-.832a.463.463,0,0,1,.927,0v.832A.463.463,0,0,1,178.45,278.716Z" transform="translate(-177.987 -276.957)"/><path class="g" d="M243.917,288.3h0a1.4,1.4,0,0,1-1.4-1.4v-1.021a.383.383,0,0,1,.383-.383h2.041a.383.383,0,0,1,.383.383V286.9A1.4,1.4,0,0,1,243.917,288.3Z" transform="translate(-238.525 -284.968)"/><path class="g" d="M337.943,278.716a.463.463,0,0,1-.464-.463v-.832a.463.463,0,0,1,.927,0v.832A.463.463,0,0,1,337.943,278.716Z" transform="translate(-327.623 -276.957)"/></g><path class="b" d="M160.787,128.351l-.043,0a.463.463,0,0,1-.419-.5,4.137,4.137,0,0,1,2.53-3.386.463.463,0,0,1,.3.875,3.245,3.245,0,0,0-1.912,2.595A.463.463,0,0,1,160.787,128.351Z" transform="translate(-155.413 -116.744)"/><g transform="translate(14.862 8.809)"><path class="h" d="M323.928,146.215h0a.464.464,0,0,1-.461-.466c.005-1.079-1.259-2.052-1.836-2.331a.463.463,0,1,1,.4-.835,5.268,5.268,0,0,1,1.415,1.069,3.094,3.094,0,0,1,.946,2.1A.464.464,0,0,1,323.928,146.215Z" transform="translate(-321.367 -142.538)"/><path class="h" d="M332.511,166.892a.464.464,0,0,1-.432-.632,2.812,2.812,0,0,1,1.164-1.412.464.464,0,0,1,.44.816,1.926,1.926,0,0,0-.74.933A.464.464,0,0,1,332.511,166.892Z" transform="translate(-331.388 -163.417)"/></g><path class="b" d="M167.217,158.008a.464.464,0,0,1-.461-.424,2.439,2.439,0,0,0-1.266-2.015.463.463,0,0,1,.363-.853,2.893,2.893,0,0,1,1.164.977,3.617,3.617,0,0,1,.663,1.812.463.463,0,0,1-.422.5Z" transform="translate(-159.996 -145.12)"/><path class="c" d="M89.28,162.009a6.372,6.372,0,0,0,9.011,0,8.46,8.46,0,0,0,.945-1.144c-11.237.8-15.791-14.035-14.206-19.92a7.094,7.094,0,0,0-4.157,6.6C80.99,154.318,85.727,158.456,89.28,162.009Z" transform="translate(-80.871 -132.235)"/></g></g></svg>