<svg xmlns="http://www.w3.org/2000/svg" width="90" height="89" viewBox="0 0 90 89"><defs><style>.a{fill:#88e5de;}.b{fill:#e8e9ea;}.c{opacity:0.05;}.d{fill:#f28b74;}.e{fill:#495059;}.f{fill:#76b7eb;}.g{fill:#b3e7ff;}</style></defs><g transform="translate(-0.222 -0.362)"><rect class="a" width="90" height="89" rx="44.5" transform="translate(0.222 0.362)"/><g transform="translate(31.945 31.362)"><path class="b" d="M19.382,1.681a6.9,6.9,0,0,0-3.442.9,5.656,5.656,0,0,1-5.585,0,6.9,6.9,0,0,0-3.442-.9A7.028,7.028,0,0,0,0,8.761C.035,15.394,2.426,23.687,5.659,26.92A3,3,0,0,0,7.8,27.8a3.052,3.052,0,0,0,3-3.065c.013-2.709,1.2-3.319,2.344-3.319s2.331.61,2.344,3.319a3.052,3.052,0,0,0,3,3.065,3,3,0,0,0,2.143-.883c3.233-3.233,5.624-11.526,5.659-18.159A7.028,7.028,0,0,0,19.382,1.681Z" transform="translate(0 -1.681)"/><path class="c" d="M195.382,23.849l-.036-.057a5.351,5.351,0,0,0-.911-1.159,5.645,5.645,0,0,1-.807.316,4.5,4.5,0,0,1,1.068,1.257l.036.057a.385.385,0,1,0,.65-.414Zm-6.775-.057-.036.057a.385.385,0,1,0,.65.414l.037-.057a4.5,4.5,0,0,1,1.068-1.257,5.645,5.645,0,0,1-.807-.316A5.352,5.352,0,0,0,188.607,23.792Z" transform="translate(-178.83 -21.557)"/><path class="c" d="M17.193,28.918c-1.394-1.652-4.414-2.492-8.683-1.746-6.1,1.067-5.783-13.2-3.865-17.723A7.091,7.091,0,0,0,0,16.13c.035,6.633,2.426,14.926,5.659,18.159a3,3,0,0,0,2.143.882,3.052,3.052,0,0,0,3-3.065c.013-2.709,1.2-3.319,2.344-3.319s2.331.61,2.344,3.319a3.052,3.052,0,0,0,3,3.065,3,3,0,0,0,2.143-.882,18.87,18.87,0,0,0,3.871-7.3C20.706,32.89,18.474,30.435,17.193,28.918Z" transform="translate(0 -9.05)"/><g transform="translate(5.854 8.491)"><ellipse class="d" cx="1.966" cy="1.565" rx="1.966" ry="1.565"/><ellipse class="d" cx="1.966" cy="1.565" rx="1.966" ry="1.565" transform="translate(10.654)"/></g><g transform="translate(7.763 6.979)"><path class="e" d="M151.55,139.2a.385.385,0,0,1-.385-.385v-.844a.385.385,0,1,1,.77,0v.844A.385.385,0,0,1,151.55,139.2Z" transform="translate(-151.165 -137.587)"/><path class="e" d="M229.693,149.2h0a1.424,1.424,0,0,1-1.424-1.424v-1.035a.389.389,0,0,1,.389-.389h2.071a.389.389,0,0,1,.389.389v1.035A1.424,1.424,0,0,1,229.693,149.2Z" transform="translate(-224.309 -145.905)"/><path class="e" d="M346.22,139.2a.385.385,0,0,1-.385-.385v-.844a.385.385,0,1,1,.77,0v.844A.385.385,0,0,1,346.22,139.2Z" transform="translate(-335.838 -137.587)"/></g><path class="f" d="M425.766,14.516h0a.4.4,0,0,1-.738,0h0a2.73,2.73,0,0,0-1.413-1.413h0a.4.4,0,0,1,0-.738h0a2.73,2.73,0,0,0,1.413-1.413h0a.4.4,0,0,1,.738,0h0a2.73,2.73,0,0,0,1.413,1.413h0a.4.4,0,0,1,0,.738h0A2.73,2.73,0,0,0,425.766,14.516Z" transform="translate(-401.631 -10.247)"/><path class="g" d="M380.559,270.024h0a.3.3,0,0,1-.547,0h0a2.026,2.026,0,0,0-1.048-1.048h0a.3.3,0,0,1,0-.548h0a2.026,2.026,0,0,0,1.048-1.048h0a.3.3,0,0,1,.547,0h0a2.026,2.026,0,0,0,1.048,1.048h0a.3.3,0,0,1,0,.548h0A2.026,2.026,0,0,0,380.559,270.024Z" transform="translate(-359.332 -253.564)"/><path class="f" d="M14.089,319.773h0a.513.513,0,0,1-.94,0h0a3.479,3.479,0,0,0-1.8-1.8h0a.513.513,0,0,1,0-.94h0a3.479,3.479,0,0,0,1.8-1.8h0a.513.513,0,0,1,.94,0h0a3.479,3.479,0,0,0,1.8,1.8h0a.513.513,0,0,1,0,.94h0A3.479,3.479,0,0,0,14.089,319.773Z" transform="translate(-10.474 -298.839)"/></g></g></svg>