<svg xmlns="http://www.w3.org/2000/svg" xmlns:xlink="http://www.w3.org/1999/xlink" width="160" height="47.407" viewBox="0 0 160 47.407"><defs><style>.a{fill:#fff;}.b{fill:#a6a6a6;}.c{fill:url(#a);}</style><linearGradient id="a" x1="-1.199" y1="2.436" x2="-1.199" y2="1.535" gradientUnits="objectBoundingBox"><stop offset="0" stop-color="#1a1a1a" stop-opacity="0.102"/><stop offset="0.123" stop-color="#212121" stop-opacity="0.153"/><stop offset="0.308" stop-color="#353535" stop-opacity="0.227"/><stop offset="0.532" stop-color="#575757" stop-opacity="0.318"/><stop offset="0.783" stop-color="#858585" stop-opacity="0.42"/><stop offset="1" stop-color="#b3b3b3" stop-opacity="0.51"/></linearGradient></defs><path class="a" d="M161.445,44.317a4.541,4.541,0,0,1-4.546,4.541H8.114a4.547,4.547,0,0,1-4.552-4.541V8.107A4.553,4.553,0,0,1,8.114,3.561H156.9a4.546,4.546,0,0,1,4.546,4.546V44.317Z" transform="translate(-2.507 -2.506)"/><path class="b" d="M154.392,47.407H5.608A5.608,5.608,0,0,1,0,41.812V5.6A5.612,5.612,0,0,1,5.608,0H154.391A5.614,5.614,0,0,1,160,5.6V41.811A5.607,5.607,0,0,1,154.392,47.407Z" transform="translate(0 0)"/><path d="M161.445,44.317a4.541,4.541,0,0,1-4.546,4.541H8.114a4.547,4.547,0,0,1-4.552-4.541V8.107A4.553,4.553,0,0,1,8.114,3.561H156.9a4.546,4.546,0,0,1,4.546,4.546V44.317Z" transform="translate(-2.507 -2.506)"/><path class="a" d="M71.753,40.959a6.872,6.872,0,0,1,3.274-5.766,7.041,7.041,0,0,0-5.545-3c-2.333-.245-4.6,1.4-5.783,1.4-1.212,0-3.042-1.372-5.014-1.331a7.383,7.383,0,0,0-6.214,3.789c-2.687,4.651-.683,11.485,1.891,15.244,1.288,1.842,2.793,3.9,4.762,3.824,1.927-.078,2.647-1.227,4.972-1.227,2.3,0,2.98,1.227,4.989,1.181,2.068-.032,3.37-1.849,4.613-3.707a15.2,15.2,0,0,0,2.11-4.3A6.649,6.649,0,0,1,71.753,40.959ZM67.958,29.722a6.763,6.763,0,0,0,1.549-4.848,6.893,6.893,0,0,0-4.456,2.3,6.436,6.436,0,0,0-1.589,4.669,5.693,5.693,0,0,0,4.5-2.126Z" transform="translate(-36.026 -17.505)"/><path class="c" d="M331.8,0H252.108l31.215,47.407H331.8a5.612,5.612,0,0,0,5.608-5.6V5.6A5.613,5.613,0,0,0,331.8,0Z" transform="translate(-177.409 0)"/><g transform="translate(50.315 21.338)"><path class="a" d="M183.134,88.026h-2.693l-1.475-4.634h-5.128l-1.405,4.634h-2.622l5.081-15.777h3.138Zm-4.613-6.578-1.334-4.12q-.212-.631-.8-2.972h-.047q-.235,1.006-.749,2.972l-1.312,4.12Zm17.655.75a6.441,6.441,0,0,1-1.577,4.587,4.625,4.625,0,0,1-3.508,1.5,3.512,3.512,0,0,1-3.249-1.613v5.969h-2.528V80.389q0-1.823-.094-3.739h2.223l.141,1.8h.047a4.5,4.5,0,0,1,7.2-.447A6.29,6.29,0,0,1,196.176,82.2Zm-2.576.092a4.689,4.689,0,0,0-.749-2.74,2.59,2.59,0,0,0-2.2-1.123,2.629,2.629,0,0,0-1.7.62,2.875,2.875,0,0,0-.995,1.628,3.3,3.3,0,0,0-.117.769v1.9a3.043,3.043,0,0,0,.761,2.1,2.527,2.527,0,0,0,1.978.855,2.591,2.591,0,0,0,2.223-1.1A4.841,4.841,0,0,0,193.6,82.291Zm15.664-.092a6.441,6.441,0,0,1-1.577,4.587,4.627,4.627,0,0,1-3.509,1.5,3.512,3.512,0,0,1-3.249-1.613v5.969H198.4V80.389q0-1.823-.094-3.739h2.223l.141,1.8h.047a4.5,4.5,0,0,1,7.2-.447A6.3,6.3,0,0,1,209.264,82.2Zm-2.577.092a4.689,4.689,0,0,0-.751-2.74,2.586,2.586,0,0,0-2.2-1.123,2.641,2.641,0,0,0-1.7.62,2.874,2.874,0,0,0-.994,1.628,3.376,3.376,0,0,0-.119.769v1.9a3.053,3.053,0,0,0,.76,2.1,2.533,2.533,0,0,0,1.98.855,2.589,2.589,0,0,0,2.223-1.1A4.841,4.841,0,0,0,206.687,82.291ZM223.9,83.6a4.214,4.214,0,0,1-1.4,3.278,6.219,6.219,0,0,1-4.3,1.381,7.5,7.5,0,0,1-4.086-.983l.585-2.107a7.035,7.035,0,0,0,3.652.984,3.447,3.447,0,0,0,2.223-.644,2.1,2.1,0,0,0,.8-1.719,2.2,2.2,0,0,0-.657-1.616,6.091,6.091,0,0,0-2.177-1.216q-4.144-1.545-4.146-4.519a3.99,3.99,0,0,1,1.463-3.183,5.787,5.787,0,0,1,3.875-1.241,7.66,7.66,0,0,1,3.582.749l-.634,2.06a6.265,6.265,0,0,0-3.032-.726,3.084,3.084,0,0,0-2.092.656,1.876,1.876,0,0,0-.634,1.43,1.932,1.932,0,0,0,.727,1.545,8.189,8.189,0,0,0,2.293,1.216,7.775,7.775,0,0,1,3,1.918A4,4,0,0,1,223.9,83.6Zm8.38-5.054h-2.787V84.07q0,2.107,1.475,2.105a4.442,4.442,0,0,0,1.123-.117l.07,1.919a5.729,5.729,0,0,1-1.966.28,3.031,3.031,0,0,1-2.342-.914,4.481,4.481,0,0,1-.843-3.067V78.542h-1.66v-1.9h1.66V74.562l2.483-.749v2.832h2.787Zm12.548,3.7a6.239,6.239,0,0,1-1.5,4.307,5.344,5.344,0,0,1-4.167,1.732,5.094,5.094,0,0,1-3.993-1.66,6.05,6.05,0,0,1-1.487-4.19,6.189,6.189,0,0,1,1.533-4.329,5.316,5.316,0,0,1,4.134-1.686,5.2,5.2,0,0,1,4.026,1.662A5.971,5.971,0,0,1,244.826,82.244Zm-2.621.058a5.093,5.093,0,0,0-.677-2.684,2.5,2.5,0,0,0-2.272-1.355,2.539,2.539,0,0,0-2.318,1.355,5.177,5.177,0,0,0-.678,2.731,5.078,5.078,0,0,0,.678,2.685,2.593,2.593,0,0,0,4.569-.023,5.114,5.114,0,0,0,.7-2.71Zm10.842-3.43a4.4,4.4,0,0,0-.8-.07,2.386,2.386,0,0,0-2.061,1.008,3.8,3.8,0,0,0-.631,2.247v5.969H247.03V80.233q0-1.791-.074-3.581h2.2l.092,2.177h.07a3.9,3.9,0,0,1,1.264-1.8,3.058,3.058,0,0,1,1.827-.609,4.059,4.059,0,0,1,.632.046l0,2.411ZM264.354,81.8a5.928,5.928,0,0,1-.093,1.146h-7.585a3.3,3.3,0,0,0,1.1,2.577,3.763,3.763,0,0,0,2.481.794,8.391,8.391,0,0,0,3.069-.537l.4,1.753a9.49,9.49,0,0,1-3.815.7,5.531,5.531,0,0,1-4.158-1.555,5.75,5.75,0,0,1-1.51-4.178,6.515,6.515,0,0,1,1.406-4.282,4.846,4.846,0,0,1,3.978-1.824,4.241,4.241,0,0,1,3.725,1.824A6.139,6.139,0,0,1,264.354,81.8Zm-2.411-.656a3.421,3.421,0,0,0-.491-1.943,2.208,2.208,0,0,0-2.014-1.055,2.4,2.4,0,0,0-2.012,1.03,3.775,3.775,0,0,0-.748,1.966Z" transform="translate(-169.812 -72.016)"/></g><g transform="translate(51.795 7.769)"><path class="a" d="M176.624,34.444a16.145,16.145,0,0,1-1.818-.092V26.724a13.765,13.765,0,0,1,2.14-.161c2.9,0,4.235,1.426,4.235,3.751C181.181,33,179.6,34.444,176.624,34.444Zm.425-6.9a5.074,5.074,0,0,0-1,.081v5.8a6.563,6.563,0,0,0,.84.034c1.9,0,2.981-1.081,2.981-3.106A2.53,2.53,0,0,0,177.049,27.541Zm8.294,6.961a2.661,2.661,0,0,1-2.693-2.876,2.723,2.723,0,0,1,2.785-2.957,2.64,2.64,0,0,1,2.693,2.865A2.739,2.739,0,0,1,185.342,34.5Zm.047-4.925c-.9,0-1.473.839-1.473,2.013,0,1.151.587,1.99,1.461,1.99s1.461-.9,1.461-2.014C186.839,30.429,186.264,29.578,185.39,29.578Zm12.056-.793L195.7,34.376h-1.14l-.725-2.428a18.405,18.405,0,0,1-.449-1.806h-.024a12.1,12.1,0,0,1-.448,1.806l-.771,2.428h-1.151l-1.646-5.591h1.277l.633,2.658q.224.95.379,1.795h.024c.091-.471.241-1.059.46-1.783l.795-2.669h1.013l.76,2.612c.184.633.333,1.254.449,1.841h.033a16.084,16.084,0,0,1,.379-1.841l.679-2.612h1.22Zm6.439,5.591h-1.243v-3.21c0-.989-.379-1.484-1.128-1.484a1.291,1.291,0,0,0-1.243,1.369v3.325h-1.243V30.383c0-.494-.012-1.024-.046-1.6h1.093l.058.863h.034a2.009,2.009,0,0,1,1.773-.977c1.174,0,1.945.9,1.945,2.358v3.348Zm3.427,0h-1.244V26.219h1.244Zm4.531.127a2.662,2.662,0,0,1-2.693-2.876,2.723,2.723,0,0,1,2.784-2.957,2.64,2.64,0,0,1,2.693,2.865A2.739,2.739,0,0,1,211.843,34.5Zm.046-4.925c-.9,0-1.473.839-1.473,2.013,0,1.151.588,1.99,1.46,1.99s1.461-.9,1.461-2.014c0-1.138-.573-1.989-1.448-1.989Zm7.638,4.8-.09-.644H219.4a1.909,1.909,0,0,1-1.635.771,1.626,1.626,0,0,1-1.714-1.645c0-1.38,1.2-2.094,3.268-2.094v-.1c0-.736-.39-1.1-1.161-1.1a2.617,2.617,0,0,0-1.461.415l-.253-.817a3.575,3.575,0,0,1,1.92-.484c1.461,0,2.2.771,2.2,2.313v2.059a8.44,8.44,0,0,0,.081,1.335Zm-.171-2.785c-1.38,0-2.073.334-2.073,1.127a.792.792,0,0,0,.853.874,1.19,1.19,0,0,0,1.22-1.138Zm7.245,2.785-.058-.9h-.034a1.875,1.875,0,0,1-1.8,1.024c-1.348,0-2.347-1.186-2.347-2.854,0-1.749,1.035-2.98,2.449-2.98a1.68,1.68,0,0,1,1.577.76h.025V26.219h1.244v6.65c0,.541.013,1.047.046,1.507H226.6Zm-.184-3.29a1.353,1.353,0,0,0-1.309-1.45c-.921,0-1.485.817-1.485,1.967,0,1.127.585,1.9,1.46,1.9a1.4,1.4,0,0,0,1.334-1.484v-.932Zm9.131,3.417a2.661,2.661,0,0,1-2.692-2.876,2.723,2.723,0,0,1,2.784-2.957,2.64,2.64,0,0,1,2.693,2.865A2.738,2.738,0,0,1,235.549,34.5Zm.046-4.925c-.9,0-1.472.839-1.472,2.013,0,1.151.587,1.99,1.46,1.99s1.461-.9,1.461-2.014c0-1.138-.573-1.989-1.449-1.989Zm9.423,4.8h-1.244v-3.21c0-.989-.379-1.484-1.128-1.484A1.29,1.29,0,0,0,241.4,31.05v3.325h-1.244V30.383c0-.494-.012-1.024-.046-1.6h1.093l.058.863h.034a2.008,2.008,0,0,1,1.772-.978c1.174,0,1.946.9,1.946,2.358Zm8.361-4.659h-1.367v2.715c0,.691.24,1.036.723,1.036a2.448,2.448,0,0,0,.551-.058l.034.944a2.753,2.753,0,0,1-.964.139c-.979,0-1.565-.541-1.565-1.956V29.716h-.816v-.932h.816V27.76l1.22-.369v1.392h1.367Zm6.579,4.659h-1.242V31.189c0-1-.378-1.507-1.128-1.507a1.219,1.219,0,0,0-1.244,1.323v3.37H255.1V26.219h1.242v3.359h.025a1.885,1.885,0,0,1,1.681-.909c1.183,0,1.907.92,1.907,2.382Zm6.74-2.5h-3.729a1.6,1.6,0,0,0,1.762,1.656,4.2,4.2,0,0,0,1.507-.264l.193.863a4.669,4.669,0,0,1-1.876.345,2.6,2.6,0,0,1-2.784-2.818,2.731,2.731,0,0,1,2.644-3c1.429,0,2.325,1.059,2.325,2.658a2.4,2.4,0,0,1-.043.563Zm-1.14-.886c0-.863-.435-1.472-1.23-1.472a1.474,1.474,0,0,0-1.359,1.472Z" transform="translate(-174.806 -26.219)"/></g></svg>