<svg xmlns="http://www.w3.org/2000/svg" width="32" height="32" viewBox="0 0 32 32"><defs><style>.a{fill:#8e9ab8;}</style></defs><path class="a" d="M23,7C14,7,7,13.627,7,22.525a15.08,15.08,0,0,0,5.023,11.467,1.379,1.379,0,0,1,.447.894l.074,2.867a1.308,1.308,0,0,0,1.786,1.154l3.163-1.415a1.339,1.339,0,0,1,.856-.074A17.12,17.12,0,0,0,23,38.049c9,0,16-6.627,16-15.525S32,7,23,7Zm9.6,11.951L27.912,26.4a2.372,2.372,0,0,1-3.46.633L20.73,24.237a.949.949,0,0,0-1.153,0l-5.1,3.835a.764.764,0,0,1-1.116-1.005l4.688-7.446a2.372,2.372,0,0,1,3.46-.633l3.721,2.792a.949.949,0,0,0,1.153,0l5.06-3.835A.777.777,0,0,1,32.6,18.951Z" transform="translate(-7 -7)"/></svg>