<svg xmlns="http://www.w3.org/2000/svg" width="77.457" height="28.927" viewBox="0 0 77.457 28.927"><defs><style>.a{opacity:0.403;}.b{fill:#fff;}.c{opacity:0.803;}.d{fill:#1f1f1f;}</style></defs><g transform="translate(-1149.01 -418.3)"><g class="a" transform="matrix(0.998, 0.07, -0.07, 0.998, 1150.155, 425.511)"><ellipse class="b" cx="10.31" cy="8.21" rx="10.31" ry="8.21"/><ellipse class="b" cx="10.31" cy="8.21" rx="10.31" ry="8.21" transform="translate(55.877)"/></g><g class="c" transform="matrix(0.998, 0.07, -0.07, 0.998, 1160.695, 418.3)"><path class="d" d="M153.185,146.052a2.02,2.02,0,0,1-2.02-2.02v-4.425a2.02,2.02,0,0,1,4.04,0v4.425A2.02,2.02,0,0,1,153.185,146.052Z" transform="translate(-151.165 -137.587)"/><path class="d" d="M235.738,161.293h0a7.469,7.469,0,0,1-7.469-7.469v-5.43a2.039,2.039,0,0,1,2.039-2.039h10.86a2.039,2.039,0,0,1,2.039,2.039v5.43A7.469,7.469,0,0,1,235.738,161.293Z" transform="translate(-207.502 -143.994)"/><path class="d" d="M347.855,146.052a2.02,2.02,0,0,1-2.02-2.02v-4.425a2.02,2.02,0,1,1,4.04,0v4.425A2.02,2.02,0,0,1,347.855,146.052Z" transform="translate(-293.403 -137.587)"/></g></g></svg>