<svg xmlns="http://www.w3.org/2000/svg" width="90" height="89" viewBox="0 0 90 89"><defs><style>.a{fill:#6dcbeb;}.b{fill:#f5d7b7;}.c{opacity:0.1;}.d{fill:#38648c;}.e{fill:#f28b74;}</style></defs><g transform="translate(-830 -873)"><g transform="translate(829.697 872.638)"><rect class="a" width="90" height="89" rx="44.5" transform="translate(0.303 0.362)"/></g><g transform="translate(856.314 901.793)"><path class="b" d="M128.671,270.824a1.112,1.112,0,0,1-1.112-1.112v-9.138a1.733,1.733,0,0,0-1.22-1.661l-3.962-1.241a1.112,1.112,0,0,1,.665-2.122L127,256.792a3.947,3.947,0,0,1,2.779,3.783v9.138A1.112,1.112,0,0,1,128.671,270.824Z" transform="translate(-112.775 -240.248)"/><path class="c" d="M126.772,259.121a7.215,7.215,0,0,0-1.737-2.945l-1.995-.625a1.112,1.112,0,0,0-.665,2.122l3.962,1.241A1.746,1.746,0,0,1,126.772,259.121Z" transform="translate(-112.774 -240.248)"/><path class="b" d="M278.693,270.824a1.112,1.112,0,0,1-1.112-1.112v-9.138a3.948,3.948,0,0,1,2.779-3.783l3.962-1.241a1.112,1.112,0,0,1,.665,2.122l-3.962,1.241a1.733,1.733,0,0,0-1.22,1.661v9.138A1.112,1.112,0,0,1,278.693,270.824Z" transform="translate(-257.442 -240.247)"/><path class="c" d="M319.057,259.121a7.215,7.215,0,0,1,1.737-2.945l1.995-.625a1.112,1.112,0,0,1,.665,2.122l-3.962,1.241A1.749,1.749,0,0,0,319.057,259.121Z" transform="translate(-295.909 -240.248)"/><path class="d" d="M136.587,60.073l-4.434-1.55a4.094,4.094,0,0,1-2.206-1.837L128.9,54.851a4.021,4.021,0,0,1-.528-1.992V46.418a1.133,1.133,0,0,0-1.058-1.142,1.112,1.112,0,0,0-1.166,1.111v6.472a4.022,4.022,0,0,1-.528,1.992l-1.047,1.835a4.1,4.1,0,0,1-2.206,1.837l-4.4,1.539a1.133,1.133,0,0,0-.719,1.409,1.111,1.111,0,0,0,1.423.7l4.434-1.55a6.318,6.318,0,0,0,3.4-2.834l.658-1.154a.112.112,0,0,1,.194,0l.658,1.154a6.319,6.319,0,0,0,3.4,2.835l4.434,1.55a1.112,1.112,0,0,0,.734-2.1Z" transform="translate(-108.689 -45.274)"/><path class="c" d="M321.28,229.183a.558.558,0,0,0,0-.831,7.269,7.269,0,0,1-1.356-1.876c.093.041.188.079.285.113l4.4,1.539a1.133,1.133,0,0,1,.719,1.409,1.111,1.111,0,0,1-1.423.7l-2.726-.953C321.216,229.251,321.247,229.216,321.28,229.183Z" transform="translate(-296.713 -213.33)"/><path class="c" d="M121.309,229.037a.558.558,0,0,1,0-.831,7.269,7.269,0,0,0,1.356-1.876c-.093.041-.188.079-.285.113l-4.4,1.539a1.133,1.133,0,0,0-.719,1.409,1.111,1.111,0,0,0,1.423.7l2.726-.953C121.374,229.105,121.343,229.07,121.309,229.037Z" transform="translate(-108.7 -213.194)"/><path class="e" d="M0,116.077a13.36,13.36,0,0,0,3.554,9.471A5.548,5.548,0,0,0,11.4,117.7a2.267,2.267,0,0,1,0-3.25,5.548,5.548,0,1,0-7.846-7.846A13.36,13.36,0,0,0,0,116.077Z" transform="translate(0 -100.65)"/><path class="c" d="M2.574,142.9A13.922,13.922,0,0,0,0,151.24a13.36,13.36,0,0,0,3.554,9.471,5.539,5.539,0,0,0,8.307-.525C4.451,162.3-.981,151.05,2.574,142.9Z" transform="translate(0 -135.813)"/><path class="e" d="M345.5,116.077a13.36,13.36,0,0,1-3.554,9.471A5.548,5.548,0,0,1,334.1,117.7a2.267,2.267,0,0,0,0-3.25,5.548,5.548,0,1,1,7.846-7.846A13.36,13.36,0,0,1,345.5,116.077Z" transform="translate(-308.356 -100.65)"/><path class="c" d="M338.194,282.6c-3.437-.249-4.48-3.936-3.8-7.008a2.512,2.512,0,0,1-.287.343,5.548,5.548,0,0,0,7.846,7.846,12.835,12.835,0,0,0,3.489-8.018C343.144,281.123,341.786,282.86,338.194,282.6Z" transform="translate(-308.356 -258.881)"/><path class="c" d="M116.534,218.535a3.914,3.914,0,0,0-2.379,2.047.544.544,0,1,0,.969.5,2.881,2.881,0,0,1,1.617-1.469,2.222,2.222,0,0,1-.21-.956C116.531,218.617,116.532,218.577,116.534,218.535Zm.008-.112a2.189,2.189,0,0,1,.371-1.027,2.826,2.826,0,0,1-1.789-1.517.544.544,0,1,0-.969.5A3.913,3.913,0,0,0,116.542,218.423Z" transform="translate(-105.817 -203.225)"/><path class="c" d="M361.587,215.641a.544.544,0,0,0-.732.236,2.826,2.826,0,0,1-1.789,1.517,2.189,2.189,0,0,1,.371,1.027,3.913,3.913,0,0,0,2.386-2.049A.544.544,0,0,0,361.587,215.641Z" transform="translate(-333.014 -203.225)"/><path class="c" d="M363.06,258.828a.544.544,0,0,0,.969-.5,3.914,3.914,0,0,0-2.379-2.047c0,.042,0,.082,0,.118a2.222,2.222,0,0,1-.21.956A2.882,2.882,0,0,1,363.06,258.828Z" transform="translate(-335.22 -240.976)"/></g></g></svg>