<svg xmlns="http://www.w3.org/2000/svg" width="90" height="89" viewBox="0 0 90 89"><defs><style>.a{fill:#b99aff;}.b{fill:#f5d7b7;}.c,.d{opacity:0.05;}.e{fill:#495059;}.f{opacity:0.1;}</style></defs><g transform="translate(-932 -873)"><g transform="translate(932.337 872.638)"><rect class="a" width="90" height="89" rx="44.5" transform="translate(-0.337 0.362)"/></g><g transform="translate(956.215 903.794)"><path class="b" d="M19.355,86.774l.062-2.266a.622.622,0,0,0-.285-.54c-3.4-2.2-6.889-4.567-9.491-6.344a.934.934,0,0,1-.411-.867,3.606,3.606,0,0,0-1.777-3.34,3.335,3.335,0,0,0-4.638.685,2.763,2.763,0,0,0-.381,1.891.69.69,0,0,1-.481.763A2.762,2.762,0,0,0,.412,77.913a3.335,3.335,0,0,0,1.382,4.48,3.606,3.606,0,0,0,3.78.163.934.934,0,0,1,.959,0c2.757,1.6,6.451,3.755,9.937,5.9A.355.355,0,0,0,17,88.238l.177-.718a.514.514,0,0,1,.5-.391l1.3.006A.373.373,0,0,0,19.355,86.774Z" transform="translate(0 -72.793)"/><g transform="translate(0 0)"><path class="b" d="M19.355,86.774l.062-2.266a.622.622,0,0,0-.285-.54c-3.4-2.2-6.889-4.567-9.491-6.344a.934.934,0,0,1-.411-.867,3.606,3.606,0,0,0-1.777-3.34,3.335,3.335,0,0,0-4.638.685,2.763,2.763,0,0,0-.381,1.891.69.69,0,0,1-.481.763A2.762,2.762,0,0,0,.412,77.913a3.335,3.335,0,0,0,1.382,4.48,3.606,3.606,0,0,0,3.78.163.934.934,0,0,1,.959,0c2.757,1.6,6.451,3.755,9.937,5.9A.355.355,0,0,0,17,88.238l.177-.718a.514.514,0,0,1,.5-.391l1.3.006A.373.373,0,0,0,19.355,86.774Z" transform="translate(0 -72.793)"/></g><path class="c" d="M17,139.285l.177-.718a.512.512,0,0,1,.074-.165c-2.572-1.632-8.483-5.087-10.538-6.645a1.172,1.172,0,0,0-.9-.216c-3.365.551-4.891-1.643-4.971-3.1a2.64,2.64,0,0,0-.431.518A3.335,3.335,0,0,0,1.8,133.44a3.606,3.606,0,0,0,3.78.163.934.934,0,0,1,.959,0c2.757,1.6,6.451,3.755,9.937,5.9A.355.355,0,0,0,17,139.285Z" transform="translate(-0.001 -123.839)"/><path class="b" d="M245.231,284.946a3.6,3.6,0,0,0-3.684.94.87.87,0,0,1-.859.271c-3.673-.883-8.849-2.143-13.41-3.42q-.652-.183-1.317-.373a.373.373,0,0,0-.463.455l.519,1.934a.326.326,0,0,1-.223.4l-1.34.393a.452.452,0,0,0-.325.456l.046.951a.444.444,0,0,0,.327.407q.7.189,1.376.38c4.56,1.276,9.638,2.885,13.235,4.036a.893.893,0,0,1,.6.7,3.606,3.606,0,0,0,2.657,2.693,3.335,3.335,0,0,0,4.25-1.981,2.78,2.78,0,0,0-.227-2.027.533.533,0,0,1,.2-.7,2.781,2.781,0,0,0,1.246-1.615A3.335,3.335,0,0,0,245.231,284.946Z" transform="translate(-205.595 -265.02)"/><path class="c" d="M246.623,330.13a2.651,2.651,0,0,0,.1-.809c-2.5,2.331-5.148.56-5.957-1.484a1.122,1.122,0,0,0-.821-.677c-3.112-.646-13.368-3.556-15.7-4.537a.45.45,0,0,0-.113.32l.046.951a.444.444,0,0,0,.327.407q.7.189,1.376.38c4.56,1.276,9.638,2.885,13.235,4.036a.894.894,0,0,1,.6.7,3.606,3.606,0,0,0,2.657,2.693A3.335,3.335,0,0,0,246.623,330.13Z" transform="translate(-205.598 -301.965)"/><g class="d" transform="translate(27.661 21.197)"><path d="M337.066,330.894a.619.619,0,0,1-.154-.02c-.353-.09-1.538-.4-1.964-.527a.62.62,0,0,1,.367-1.185c.265.082.995.277,1.9.51a.62.62,0,0,1-.153,1.221Z" transform="translate(-334.511 -329.134)"/></g><g transform="translate(11.253 7.45)"><path class="e" d="M256.551,166.362a.62.62,0,0,1-.56-.886l1.058-2.232a.62.62,0,0,1,1.121.531l-1.058,2.232A.62.62,0,0,1,256.551,166.362Z" transform="translate(-246.021 -162.889)"/><path class="e" d="M272.409,224.622a.62.62,0,0,1-.108-1.231l2.626-.467a.62.62,0,0,1,.217,1.221l-2.626.467A.617.617,0,0,1,272.409,224.622Z" transform="translate(-260.568 -217.951)"/><path class="e" d="M138.587,280.461H136.7a.62.62,0,1,1,0-1.24h1.888a.62.62,0,0,1,0,1.24Z" transform="translate(-136.078 -269.601)"/><path class="e" d="M175.6,316.719a.62.62,0,0,1-.534-.934l.544-.928a.62.62,0,1,1,1.07.627l-.544.928A.62.62,0,0,1,175.6,316.719Z" transform="translate(-171.759 -302.009)"/></g><path class="f" d="M132.98,195.232a.617.617,0,0,1-.328-.094l-1.118-.7a.62.62,0,0,1,.657-1.052l1.118.7a.62.62,0,0,1-.329,1.146Z" transform="translate(-120.39 -183.329)"/></g></g></svg>