<svg xmlns="http://www.w3.org/2000/svg" width="90" height="89" viewBox="0 0 90 89"><defs><style>.a{fill:#70b2fd;}.b{fill:#bdc0c3;}.c{opacity:0.1;}.d{fill:#495059;}.e{fill:#7fdbd5;}.f{fill:#b3e7ff;}.g{fill:#76b7eb;}</style></defs><g transform="translate(-419 -873)"><rect class="a" width="90" height="89" rx="44.5" transform="translate(419 873)"/><g transform="translate(451.071 902.86)"><path class="b" d="M29.593,44.951a.97.97,0,0,1-.822-.455l-6.213-9.924a3.387,3.387,0,0,1,.229-3.913l1.287-1.6a.97.97,0,1,1,1.514,1.214l-1.287,1.6a1.445,1.445,0,0,0-.1,1.669l5.391,8.611,5.391-8.611a1.445,1.445,0,0,0-.1-1.669l-1.287-1.6a.97.97,0,1,1,1.514-1.214l1.287,1.6a3.387,3.387,0,0,1,.229,3.913L30.416,44.5A.97.97,0,0,1,29.593,44.951Z" transform="translate(-22.043 -27.123)"/><path class="c" d="M42.818,30.171a.692.692,0,0,0,.072.069l1.182.965a.683.683,0,0,0,.292.14l.863-1.076a.97.97,0,0,0-1.514-1.214Z" transform="translate(-41.682 -27.124)"/><path class="c" d="M232.2,30.171a.692.692,0,0,1-.072.069l-1.182.965a.683.683,0,0,1-.292.14l-.863-1.076a.97.97,0,1,1,1.514-1.214Z" transform="translate(-218.235 -27.124)"/><g transform="translate(1.525 0)"><path class="d" d="M50.092,1.579l.842-1.03A1.477,1.477,0,0,1,53.018.336,1.451,1.451,0,0,1,53.2,2.36L52.34,3.415a.688.688,0,0,1-.968.1L50.19,2.547A.688.688,0,0,1,50.092,1.579Z" transform="translate(-49.937 0)"/><path class="d" d="M208.15,1.579l-.842-1.03a1.477,1.477,0,0,0-2.084-.213,1.451,1.451,0,0,0-.184,2.024l.862,1.055a.688.688,0,0,0,.968.1l1.182-.965A.688.688,0,0,0,208.15,1.579Z" transform="translate(-196.253 0)"/></g><path class="e" d="M150.822,302.783h-1.671a6.723,6.723,0,0,1-6.716-6.716v-4.411a.97.97,0,1,1,1.94,0v4.411a4.781,4.781,0,0,0,4.775,4.775h1.671a6.363,6.363,0,0,0,6.355-6.355v-2.831a.97.97,0,1,1,1.94,0v2.831A8.305,8.305,0,0,1,150.822,302.783Z" transform="translate(-135.856 -274.798)"/><path class="c" d="M413.113,290.686a.97.97,0,0,0-.97.97v2.392a3.3,3.3,0,0,0,1.94,0v-2.392A.97.97,0,0,0,413.113,290.686Z" transform="translate(-390.821 -274.798)"/><path class="c" d="M144.376,294.352v-2.7a.97.97,0,1,0-1.94,0v2.7A1.423,1.423,0,0,0,144.376,294.352Z" transform="translate(-135.856 -274.798)"/><circle class="d" cx="3.283" cy="3.283" r="3.283" transform="translate(19.01 11.537)"/><circle class="f" cx="1.764" cy="1.764" r="1.764" transform="translate(20.528 13.056)"/><path class="c" d="M375.671,218.2c-3.339.284-4.284-3.942-3.365-5.247a3.283,3.283,0,1,0,3.365,5.247Z" transform="translate(-350.828 -201.313)"/><path class="f" d="M94.2,234.135l-2.491,3.978a1.677,1.677,0,0,1-2.843,0l-2.491-3.978a.839.839,0,0,1,.711-1.284h6.4A.839.839,0,0,1,94.2,234.135Z" transform="translate(-82.734 -220.124)"/><path class="g" d="M108.547,288.19l1.4,2.237a1.677,1.677,0,0,0,2.843,0l1.4-2.237Z" transform="translate(-103.819 -272.438)"/><path class="c" d="M88.862,238.113a1.677,1.677,0,0,0,2.843,0l.535-.855c-2.2,1.339-3.73-2.92-4.106-4.407H87.082a.839.839,0,0,0-.711,1.284Z" transform="translate(-82.733 -220.124)"/></g></g></svg>