<svg xmlns="http://www.w3.org/2000/svg" xmlns:xlink="http://www.w3.org/1999/xlink" width="434.451" height="307.533" viewBox="0 0 434.451 307.533"><defs><style>.a,.f{fill:#54c2e7;}.a,.d,.i,.u{opacity:0.1;}.b{fill:url(#a);}.c,.u{fill:#fff;}.e{fill:#cf6f80;}.g{fill:#3f3d56;}.h{fill:#512e4e;}.j{fill:#535461;}.k{fill:#9d9cb5;}.l{fill:none;stroke:#535461;stroke-miterlimit:10;stroke-width:2px;}.m{fill:url(#b);}.n{fill:#1d2366;}.o{fill:#ffb0b1;}.p{fill:#c7daf5;}.q{opacity:0.03;}.r{fill:#dce7ff;}.s{fill:#591d4b;}.t{fill:#be8b87;}.v{fill:#efc8c4;}.w{fill:#727a9c;}</style><linearGradient id="a" x1="0.5" y1="1" x2="0.5" gradientUnits="objectBoundingBox"><stop offset="0" stop-color="gray" stop-opacity="0.251"/><stop offset="0.54" stop-color="gray" stop-opacity="0.122"/><stop offset="1" stop-color="gray" stop-opacity="0.102"/></linearGradient><linearGradient id="b" x1="0.5" y1="1" x2="0.5" y2="0" xlink:href="#a"/></defs><g transform="translate(0.005 0.006)"><ellipse class="a" cx="38.283" cy="6.149" rx="38.283" ry="6.149" transform="translate(106.348 295.056)"/><ellipse class="a" cx="47.771" cy="6.149" rx="47.771" ry="6.149" transform="translate(304.962 295.229)"/><path class="a" d="M59.817,396.83H99.692v54.348H62.736c-.1.558-.193,1.12-.295,1.682h37.25v43.831c-.067-.02-.126-.043-.189-.067-1.053-.416-2.1-.856-3.143-1.328l-.668-.3q-1.572-.742-3.143-1.572c-.365-.193-.731-.393-1.092-.6a65.385,65.385,0,0,1-15.668-12.242c-.134-.13-.259-.267-.393-.393-.636-.692-1.261-1.391-1.866-2.106l-.668-.786c-.715-.876-1.407-1.776-2.078-2.687-.1-.134-.193-.267-.295-.393A58.5,58.5,0,0,1,63.73,462c-.055-.13-.1-.271-.153-.393q-.809-2.082-1.434-4.2c-.181-.593-.354-1.179-.5-1.8-.055-.181-.1-.358-.145-.534C59.263,446.362,59,437.313,59,428.328v-3.143c0-3.634.043-7.292.106-10.946,0-.947.039-1.89.059-2.841q.083-3.618.236-7.237c.024-.672.055-1.34.09-2.008A11.374,11.374,0,0,1,59.55,401C59.644,399.6,59.723,398.213,59.817,396.83Z" transform="translate(-54.088 -263.959)"/><path class="a" d="M128.772,200.094H106.9a165.806,165.806,0,0,1,11.634-16.014c3.249-3.992,6.679-7.881,10.239-11.629Z" transform="translate(-83.169 -127.735)"/><path class="a" d="M101.149,247.09v57.15H61.4c0-.165.028-.334.039-.5.035-.452.071-.9.11-1.352.043-.526.09-1.057.141-1.572s.106-1.143.165-1.713.114-1.147.181-1.717.126-1.139.2-1.705.134-1.139.208-1.705c.059-.471.122-.939.185-1.41.09-.664.185-1.332.287-1.992a1.838,1.838,0,0,1,.043-.295,135.9,135.9,0,0,1,2.927-14.348A106.113,106.113,0,0,1,70.814,261.4a109.125,109.125,0,0,1,7.418-14.286Z" transform="translate(-55.545 -173.05)"/><path class="a" d="M186.8,191.5V245.85h85.167V191.5Zm0,56.03V294.2c.487.1.97.2,1.45.283.652.126,1.3.24,1.964.338.126.02.255.039.393.051.259.043.526.079.786.114.656.09,1.308.165,1.964.224.31.031.625.059.939.083l.758.059h0c.413.031.821.055,1.226.067.251,0,.5.024.762.031h2.8c.338,0,.676,0,1.01-.031h.024a5.3,5.3,0,0,0,.7-.031,1.648,1.648,0,0,0,.2,0,4.058,4.058,0,0,0,.581-.028h.138l1.316-.1c.432-.039.868-.09,1.308-.137l.9-.106a78.362,78.362,0,0,0,10.785-2.294c7.944-2.216,15.716-5.316,23.656-7.587,10.266-2.927,21.609-4.365,31.529-.786V247.527Zm85.167-116.539V58.63A109.487,109.487,0,0,0,244.3,61.875c-21.566,5.418-40.916,17.169-57.5,32.178v36.932h4.275v1.678H186.8V189.82h85.167V132.666H208.625v-1.678Zm109.392-24.442a35.277,35.277,0,0,1-15.437-4.487c-9.174-4.99-16.5-12.694-24.689-19.2a113.355,113.355,0,0,0-59.755-23.742v71.867h121.58l.3-.318Zm11.076-1.964,11.743,12.887V101.2a46.594,46.594,0,0,0-11.728,3.363Zm11.743,201.211V247.527H379.155c-.067-.248-.134-.5-.212-.75.075.251.138.5.208.75H281.494v42.137c.927.688,1.843,1.41,2.75,2.145h0c.978.786,1.945,1.615,2.915,2.428l.978.809c.468.393.939.786,1.414,1.155q1.414,1.147,2.856,2.263c.475.393.963.746,1.446,1.116a196.926,196.926,0,0,0,24.214,15.837q2.841,1.572,5.732,3.068c1.285.656,2.577,1.308,3.874,1.941q2.923,1.426,5.893,2.75h0a216.421,216.421,0,0,0,57.362,16.71q6.6.974,13.244,1.532V305.789h.393ZM281.494,132.666V189.82h122.7V132.666Zm0,58.831V245.85h122.7V191.5Zm132.223-90.365v18.144l14.989-16.446q-7.449-1.2-14.989-1.717Zm0,90.384V245.85h119.34V191.5Zm118.9,118.59.42-62.579H413.717v94.517a214.011,214.011,0,0,0,23.063-.275h.134q5.5-.346,10.95-1.006h.083a201.646,201.646,0,0,0,56.262-15.012m51.861-125.3c-.448-1.057-.915-2.106-1.391-3.143-.888-1.964-1.827-3.874-2.793-5.783h-9.311V245.85h23.542c-.012-15.386-3.905-31.1-10.034-45.422Zm-13.5,47.1v53.826a77.107,77.107,0,0,0,16.27-21.943,75.434,75.434,0,0,0,7.253-31.891Zm0-71.867v14.144h8.439a153.218,153.218,0,0,0-8.427-14.164ZM461.638,111.8c-.621-.236-1.242-.475-1.866-.707a170.362,170.362,0,0,0-20.159-6.058L416.676,130.2h0l-.44.468.295.322h81.635a174.6,174.6,0,0,0-36.515-19.216Zm38.92,20.89H415.391l-1.674,1.532v55.6H533.073V162.887a170.043,170.043,0,0,0-32.5-30.221Z" transform="translate(-131.677 -58.63)"/><path class="a" d="M101.149,320.46v28.323H61.4c0-.165.028-.334.039-.5.035-.452.071-.9.11-1.352.043-.526.09-1.057.141-1.572s.106-1.143.165-1.713.114-1.147.181-1.717.126-1.139.2-1.705.134-1.139.208-1.705c.059-.471.122-.939.185-1.41.09-.664.185-1.332.287-1.992a1.838,1.838,0,0,1,.043-.295,135.9,135.9,0,0,1,2.927-14.348Z" transform="translate(-55.545 -217.594)"/><path class="a" d="M59.817,396.83H99.692v54.348H62.736c-.1.558-.193,1.12-.295,1.682h37.25v43.831c-.067-.02-.126-.043-.189-.067-1.053-.416-2.1-.856-3.143-1.328l-.668-.3q-1.572-.742-3.143-1.572c-.365-.193-.731-.393-1.092-.6a65.385,65.385,0,0,1-15.668-12.242c-.134-.13-.259-.267-.393-.393-.636-.692-1.261-1.391-1.866-2.106l-.668-.786c-.715-.876-1.407-1.776-2.078-2.687-.1-.134-.193-.267-.295-.393A58.5,58.5,0,0,1,63.73,462c-.055-.13-.1-.271-.153-.393q-.809-2.082-1.434-4.2c-.181-.593-.354-1.179-.5-1.8-.055-.181-.1-.358-.145-.534C59.263,446.362,59,437.313,59,428.328v-3.143c0-3.634.043-7.292.106-10.946,0-.947.039-1.89.059-2.841q.083-3.618.236-7.237c.024-.672.055-1.34.09-2.008A11.374,11.374,0,0,1,59.55,401C59.644,399.6,59.723,398.213,59.817,396.83Z" transform="translate(-54.088 -263.959)"/><path class="a" d="M169.541,183.66v48.97H139.56V183.66h4.275V167.08h17.546v16.58Z" transform="translate(-84.437 -101.44)"/><rect class="a" width="29.977" height="54.348" transform="translate(55.127 132.867)"/><path class="a" d="M186.8,539.44h29.981v45.182A78.233,78.233,0,0,1,206,586.913l-.9.11c-.44.051-.876.094-1.308.138s-.88.075-1.316.1h-.138c-.189,0-.393.024-.578.028h-.2c-.236,0-.471.024-.707.031h0c-.334.02-.668.024-1.01.027h-2.782l-.758-.027c-.393,0-.817-.043-1.226-.071h0l-.754-.055-.939-.086c-.66-.059-1.316-.134-1.964-.224l-.786-.11-.393-.055c-.656-.1-1.3-.212-1.964-.338-.483-.083-.963-.185-1.45-.283Z" transform="translate(-131.677 -350.539)"/><rect class="a" width="24.721" height="54.749" transform="translate(247.796 76.437)"/><path class="a" d="M503.283,338.19v54.352H380.58V369.1h65.357v13.83h32.622V338.19Z" transform="translate(-230.763 -205.323)"/><path class="a" d="M550.912,596.554h-.393v35.655q-6.64-.562-13.24-1.528a216.43,216.43,0,0,1-57.385-16.745q-7.909-3.56-15.5-7.771a197.726,197.726,0,0,1-24.218-15.837q-2.892-2.216-5.709-4.534c-1.3-1.073-2.593-2.173-3.9-3.241-.908-.735-1.823-1.458-2.75-2.149V538.28h97.653c-.067-.251-.134-.5-.2-.75.075.248.145.5.212.75h25.039v58.25C550.653,596.534,550.783,596.546,550.912,596.554Z" transform="translate(-278.003 -349.379)"/><path class="a" d="M879.328,212.036H863.22V207.03h7.221V192.12q.939.342,1.87.7V207.03h7.017Z" transform="translate(-542.339 -139.677)"/><path class="a" d="M858.119,304.24H779.038l.028.02-.035-.02H764.36V249.491h4.157v40.468h19V265.992H803.2v-18.9h16.109v18.918h15.692v23.966h23.114Z" transform="translate(-482.32 -173.05)"/><path class="a" d="M764.36,396.82v54.352h93.759V396.82ZM883.571,515.15l.13-43.021H858.119V452.878H764.36v94.49a214.01,214.01,0,0,0,23.063-.275h.134q5.5-.346,10.95-1.006h.083a201.645,201.645,0,0,0,56.262-15.012" transform="translate(-482.32 -263.953)"/><path class="a" d="M1094.02,539.44h21.872a75.672,75.672,0,0,1-7.257,31.887,77.133,77.133,0,0,1-16.266,21.943V558.7h1.65Z" transform="translate(-681.458 -350.539)"/><path class="a" d="M1118.454,464.972H1096.57V419.55h11.842C1114.541,433.871,1118.434,449.586,1118.454,464.972Z" transform="translate(-684.008 -277.752)"/><rect class="a" width="13.244" height="17.165" transform="translate(259.276 91.657)"/><rect class="a" width="13.244" height="3.952" transform="translate(259.276 127.237)"/><rect class="a" width="13.244" height="11.531" transform="translate(259.276 132.867)"/><rect class="a" width="13.244" height="17.165" transform="translate(259.276 162.817)"/><rect class="a" width="13.244" height="17.165" transform="translate(259.276 198.398)"/><path class="a" d="M719.66,667.344a2.178,2.178,0,0,1,.393.024h-.393v3.988H706.42V654.17h13.24Z" transform="translate(-447.144 -420.192)"/><path class="a" d="M719.66,744.71v13.26q-6.64-.562-13.24-1.528V744.71Z" transform="translate(-447.144 -475.16)"/><rect class="a" width="56.761" height="1.261" transform="translate(149.817 185.959)"/><rect class="a" width="56.761" height="4.833" transform="translate(149.817 188.897)"/><rect class="a" width="56.761" height="7.771" transform="translate(149.817 209.571)"/><path class="a" d="M488.821,652.15v7.771h-44.4q-2.892-2.208-5.713-4.534c-1.3-1.073-2.589-2.173-3.9-3.237Z" transform="translate(-282.246 -418.966)"/><path class="a" d="M541.1,712.222v7.763h-4.687q-7.9-3.563-15.492-7.775Z" transform="translate(-334.525 -455.429)"/><rect class="a" width="11.174" height="11.174" transform="translate(305.107 138.136)"/><rect class="a" width="11.174" height="11.174" transform="translate(63.173 86.074)"/><rect class="a" width="11.174" height="11.174" transform="translate(63.173 112.029)"/><rect class="a" width="11.174" height="11.174" transform="translate(63.173 137.983)"/><rect class="a" width="11.174" height="11.174" transform="translate(63.173 163.933)"/><rect class="a" width="11.174" height="11.174" transform="translate(63.173 189.888)"/><rect class="a" width="11.174" height="11.174" transform="translate(63.173 215.842)"/><rect class="a" width="11.174" height="11.174" transform="translate(347.763 138.136)"/><rect class="a" width="11.174" height="11.174" transform="translate(305.107 165.697)"/><rect class="a" width="11.174" height="11.174" transform="translate(347.763 165.697)"/><rect class="a" width="11.174" height="11.174" transform="translate(305.107 193.255)"/><rect class="a" width="11.174" height="11.174" transform="translate(347.763 193.255)"/><rect class="a" width="11.174" height="11.174" transform="translate(305.107 220.816)"/><rect class="a" width="11.174" height="11.174" transform="translate(347.763 220.816)"/><rect class="a" width="11.174" height="11.174" transform="translate(305.107 248.377)"/><rect class="a" width="11.174" height="11.174" transform="translate(347.763 248.377)"/><path class="a" d="M775.83,709.536V702.33H787v6.18Z" transform="translate(-470.723 -426.396)"/><path class="a" d="M65.24,357v6.392h38.24V357Zm3.811,5.992h-3.12v-5.6h3.143Zm3.807,0H69.715v-5.6h3.143Zm3.8,0H73.514v-5.6h3.143Zm3.807,0H77.325v-5.6h3.143Zm3.8,0H81.125v-5.6h3.143Zm3.807,0H84.932v-5.6h3.143Zm3.807,0H88.739v-5.6h3.143Zm3.8,0H92.542v-5.6h3.143Zm3.8,0H96.345v-5.6h3.143Zm3.8,0h-3.143v-5.6h3.143Z" transform="translate(-57.877 -239.777)"/><path class="a" d="M65.24,404.34v6.392h38.24V404.34Zm3.811,5.988h-3.12v-5.583h3.143Zm3.807,0H69.715v-5.583h3.143Zm3.8,0H73.514v-5.583h3.143Zm3.807,0H77.325v-5.583h3.143Zm3.8,0H81.125v-5.583h3.143Zm3.807,0H84.932v-5.583h3.143Zm3.807,0H88.739v-5.583h3.143Zm3.8,0H92.542v-5.583h3.143Zm3.8,0H96.345v-5.583h3.143Zm3.8,0h-3.143v-5.583h3.143Z" transform="translate(-57.877 -268.518)"/><path class="a" d="M65.24,451.7v6.4h38.24v-6.4Zm3.811,5.988h-3.12V452.1h3.143Zm3.807,0H69.715V452.1h3.143Zm3.8,0H73.514V452.1h3.143Zm3.807,0H77.325V452.1h3.143Zm3.8,0H81.125V452.1h3.143Zm3.807,0H84.932V452.1h3.143Zm3.807,0H88.739V452.1h3.143Zm3.8,0H92.542V452.1h3.143Zm3.8,0H96.345V452.1h3.143Zm3.8,0h-3.143V452.1h3.143Z" transform="translate(-57.877 -297.271)"/><path class="a" d="M65.24,499.06v6.384h38.24V499.06Zm3.811,5.988h-3.12v-5.591h3.143Zm3.807,0H69.715v-5.591h3.143Zm3.8,0H73.514v-5.591h3.143Zm3.807,0H77.325v-5.591h3.143Zm3.8,0H81.125v-5.591h3.143Zm3.807,0H84.932v-5.591h3.143Zm3.807,0H88.739v-5.591h3.143Zm3.8,0H92.542v-5.591h3.143Zm3.8,0H96.345v-5.591h3.143Zm3.8,0h-3.143v-5.591h3.143Z" transform="translate(-57.877 -326.023)"/><path class="a" d="M65.66,546.41c.153.6.326,1.2.507,1.8v-1.395H69.31V552.4H67.628c.051.13.1.271.153.393h35.953V546.41Zm7.465,5.988H69.982v-5.587h3.143Zm3.8,0H73.781v-5.587h3.143Zm3.807,0H77.58v-5.587h3.143Zm3.8,0H81.391v-5.587h3.143Zm3.807,0H85.2v-5.587h3.143Zm3.807,0H89.006v-5.587h3.143Zm3.8,0H92.809v-5.587h3.143Zm3.8,0H96.612v-5.587h3.143Zm3.8,0h-3.143v-5.587h3.143Z" transform="translate(-58.132 -354.77)"/><path class="a" d="M88.26,593.77c.1.126.193.267.295.393h2.078v2.683c.224.267.444.534.672.786v-3.485h3.143v5.607H93.175c.126.13.248.267.393.393h23.9V593.77Zm9.983,5.984H95.1v-5.583h3.143Zm3.807,0H98.907v-5.583h3.143Zm3.807,0h-3.143v-5.583h3.143Zm3.8,0h-3.143v-5.583h3.143Zm3.8,0h-3.143v-5.583h3.143Zm3.8,0h-3.143v-5.583h3.143Z" transform="translate(-71.852 -383.523)"/><path class="a" d="M141.65,641.12c.358.2.723.393,1.092.6v-.2h3.143v1.768l.668.31v-2.078H149.7v3.4a.986.986,0,0,0,.189.071v-3.87Z" transform="translate(-104.266 -412.27)"/><path class="a" d="M435.025,301.623Zm-24.2,115.957Zm-25.251-59c.075.251.138.5.208.75h0C385.718,359.083,385.651,358.832,385.572,358.58Zm49.453-56.969ZM197.72,242.78v1.678h17.55V242.78Zm213.1,174.8Zm-25.251-59c.075.251.138.5.208.75h0C385.718,359.083,385.651,358.832,385.572,358.58Zm49.453-56.969Zm-24.2,115.957ZM385.572,358.58c.075.251.138.5.208.75h0C385.718,359.083,385.651,358.832,385.572,358.58Z" transform="translate(-138.307 -170.433)"/><path class="b" d="M379.392,304.65s-1.548-.216-1.548-2.471a35.329,35.329,0,0,0-1.108-6.467h0c0-.02-.959-7.335-2.283-8.5s-3.025-7.991-3.025-7.991-.291-3.7-.884-4.5a38.25,38.25,0,0,1-2.577-5.536c-1.183-2.786-6.113-4.715-6.113-4.715s-8.915-5.17-11.441-6.856h0a3.876,3.876,0,0,1-.64-.483c-.44-.578-2.357-.589-2.357-.589a38.62,38.62,0,0,1-.456-4.035,3.063,3.063,0,0,0-.02-.424,13.594,13.594,0,0,0,5.976-7.394c.047-.149.086-.306.13-.456a1.277,1.277,0,0,0,.766-.691,14.421,14.421,0,0,1,.515-1.572,5.919,5.919,0,0,1,1.454-1.277,5.5,5.5,0,0,0,1.513-4.475c-.039-1.316-.251-2.644-.169-3.952l.024-.33c.024-.2.051-.393.086-.581.193-.974.613-1.894.849-2.86a3.679,3.679,0,0,0-.291-2.888c-.805-1.222-2.483-1.465-3.956-1.591-1.67-.141-3.163.043-4.231-1.344a15.083,15.083,0,0,0-1.682-2.031c-.22-.2-2.357-1.509-2.357-1.6a9.551,9.551,0,0,0-6.659-.511c-1.108.322-2.153.849-3.277,1.112-2.424.574-5.214-.047-7.272,1.34a8.548,8.548,0,0,0-2.479,3.253q-.786,1.5-1.6,3.006a19.471,19.471,0,0,0-2.118,5.143,8.167,8.167,0,0,0-.141,1.2h0v.64a2.114,2.114,0,0,0,.024.393c.024.122.02.161.031.244s.031.267.055.393.071.346.118.519c.02.075.047.145.071.216.039.134.086.263.138.393.027.067.055.138.086.2a3.662,3.662,0,0,0,.2.393c.031.055.055.106.086.157a5.219,5.219,0,0,0,.361.526c.841,1.049,2.078,1.717,2.994,2.7v.44a13.449,13.449,0,0,0,6.121,10.981c0,.149.02.3.027.452a22.483,22.483,0,0,1-.043,3.5,1.65,1.65,0,0,0-1.3-.582,1.881,1.881,0,0,0-.5.043l-.035-.027h0v.035c-.864.212-1.929,1.112-2.947,3.67,0,0-3.1,3.489-5.453,3.343s-8.325,3.63-8.325,3.63-5.823,3.78-7.072,7.63a53.776,53.776,0,0,1-2.507,6.4l-7.2,14.832h0l-1.328,11.767a54.6,54.6,0,0,1,.589,6.031c-.145.8,3.021,7.991,3.021,7.991s10.463,18.383,14.737,19.326l.306-.216a2.507,2.507,0,0,0,.578.216l.88-.621a9.589,9.589,0,0,1-.067,2.074c-.589,1.815.22,13.661,1.249,15.983s.664,32.767.664,32.767l-.145,2.687a1.14,1.14,0,0,0,.035.236l-.035.636.106.055a7.567,7.567,0,0,1-.106,2.558,28.441,28.441,0,0,0-.519,4.51s-2.943,18.812-1.548,22.591,2.581,7.921,2.581,7.921,1.473,4.715.071,5.52-5.39,2.157-4.569,4.121c.746,1.815,3.579,6.679,4,7.39l-.035.373-.578,6.259a7.858,7.858,0,0,0,.664,2.389,4.116,4.116,0,0,0,4.2,2.624c.393-.027.849-.075,1.289-.134a55.688,55.688,0,0,0,9.547-2.483,3.892,3.892,0,0,1-.746-.617h0a2.157,2.157,0,0,1-.656-1.572c.063-1.139-2.07-6.569-2.6-7.9-.083-.193-.126-.3-.126-.3s4.864-5.084,4.055-9.59c0,0-5.383-3.143-3.611-4.868a54.89,54.89,0,0,0,4.939-6.679s.145-18.525,0-21.291a22.9,22.9,0,0,1,.271-5.748c.059-.287.13-.566.2-.841a51.287,51.287,0,0,0,7.4.562c.9,0,1.823,0,2.75-.055q0,.393.035.849c.2,4.589.585,12.635.9,15.625.44,4.286,2.872,15.837,2.872,15.837s-4.64,2.978.809,10.317c0,0,0,2.66-.361,3.045h0a33.306,33.306,0,0,0-.931,3.835,6.761,6.761,0,0,0,.047,3.509c.884,1.737,6.188,1.6,6.188,1.6h0l.13-.024a7.6,7.6,0,0,1,5.614,1.693c2.016,1.619,9.665.908,13.806.393,1.623-.2,2.707-.393,2.707-.393a1.571,1.571,0,0,0,.055-.566h0c-.043-1.018-.841-3.249-6.247-5.241,0,0-5.084-3.418-5.013-6.4h-.7a5.538,5.538,0,0,1,.7,0s-1.992-7.268-1.179-7.858-1.623-8.644-1.623-8.644-1.395-13.515-1.469-14.462a8.252,8.252,0,0,1,.365-2.4l-.365-7.41s-.071-2.463,0-3.265a16.3,16.3,0,0,0-.169-2.078c-.035-.275-.071-.562-.11-.845,1.906-.483,3.143-.931,3.143-.931l-.22-25.793c1.619-3.143,1.917-10.038,1.909-14.93,0-3.143-.141-5.469-.141-5.469l2.212-3.611s.511-4.322-.3-5.269a.907.907,0,0,1,.1-1.238,4.114,4.114,0,0,1,.483-.33s-.024-.035-.051-.086a3.905,3.905,0,0,1,.491-.35s-.786-1.218-.082-1.733c.66.448,1.249.786,1.7,1.061-.031.287-.063.452-.063.452l.189-.393.7.393s3.465-6.9,3.391-7.921,2.357-5.3,2.357-5.3a5.307,5.307,0,0,1,1.623-3.194c1.328-.943,1.029-7.775,1.029-7.775s.369-3.56,1.253-5.013S379.392,304.65,379.392,304.65Zm-66.3-3.029.067,1.646-.676-1.088Z" transform="translate(-197.743 -155.486)"/><path class="c" d="M472.667,497.755l-.849,3.615s-6.8-3.469-8.023-7.877,2.051-6.082,2.051-6.082l6.333,2.683Z" transform="translate(-299.677 -318.951)"/><path class="d" d="M472.667,497.755l-.849,3.615s-6.8-3.469-8.023-7.877,2.051-6.082,2.051-6.082l6.333,2.683Z" transform="translate(-299.677 -318.951)"/><path class="c" d="M365.948,804.733s-6.286,2.31-10.608,2.6a4.036,4.036,0,0,1-4.121-2.609,7.9,7.9,0,0,1-.648-2.377l.562-6.227.3-3.316,9.182-2.385,1.3,3.976.122.3c.523,1.328,2.617,6.73,2.554,7.858a2.145,2.145,0,0,0,.644,1.552,3.738,3.738,0,0,0,.715.625Z" transform="translate(-231.103 -502.911)"/><path class="c" d="M455.394,800.929a1.571,1.571,0,0,1-.055.562s-13.445,2.243-16.195,0a7.284,7.284,0,0,0-5.658-1.658s-5.2.141-6.07-1.572a6.82,6.82,0,0,1-.043-3.489,33.239,33.239,0,0,1,.911-3.815l.208-.165,1.238-.994,14.49-.428h.11c-.071,2.962,4.919,6.361,4.919,6.361C454.55,797.7,455.332,799.915,455.394,800.929Z" transform="translate(-277.611 -502.274)"/><path class="d" d="M455.4,809.277a1.6,1.6,0,0,1-.059.562s-13.441,2.243-16.191,0a7.284,7.284,0,0,0-5.654-1.658s-5.206.141-6.07-1.572a6.815,6.815,0,0,1-.047-3.489c2,.2,5.167.7,6.408,1.89,1.878,1.811,5.06,3.619,7.013,3.76C442.326,808.868,451.469,809.159,455.4,809.277Z" transform="translate(-277.614 -510.621)"/><path class="d" d="M366.955,825.915s-6.286,2.31-10.608,2.6a4.025,4.025,0,0,1-4.117-2.613c1.6.538,3.819,1.1,4.986.585,1.383-.613,6.286-1.01,9.036-1.179a3.87,3.87,0,0,0,.7.605Z" transform="translate(-232.111 -524.093)"/><path class="e" d="M397.3,316.573c-5.186-2.016-11.857-8.675-10.192-11.787a6.961,6.961,0,0,0,.648-2.5,22.813,22.813,0,0,0,.047-3.536,48.428,48.428,0,0,0-.7-5.752s16.191.365,15.248,2.75a8.917,8.917,0,0,0-.244,3.273c.075,1.359.271,2.9.475,4.2.283,1.784.566,3.143.566,3.143s-.99,1.387-1.572,1.462S404.74,319.445,397.3,316.573Z" transform="translate(-253.128 -200.922)"/><path class="d" d="M362.873,794.7l-.122.134c-4.84-5.854-10.694,1.442-10.694,1.442l-.086-.153.3-3.316,9.182-2.385,1.3,3.976Z" transform="translate(-231.953 -502.911)"/><path class="d" d="M446.061,789.758s-3.536-.075-5.422,1.591-11,.361-10.608,0a1.293,1.293,0,0,0,.2-.6l1.238-.994,14.49-.428C446.018,789.593,446.061,789.758,446.061,789.758Z" transform="translate(-279.337 -502.249)"/><path class="f" d="M362.716,661.42a10.928,10.928,0,0,0-.6,2.016,23.066,23.066,0,0,0-.271,5.72c.145,2.75,0,21.181,0,21.181a56.384,56.384,0,0,1-4.84,6.648c-1.733,1.733,3.536,4.844,3.536,4.844.786,4.479-3.976,9.539-3.976,9.539-4.84-5.854-10.694,1.446-10.694,1.446s-3.182-5.5-3.976-7.465,3.108-3.324,4.479-4.121-.067-5.5-.067-5.5-1.159-4.121-2.534-7.881,1.517-22.477,1.517-22.477a29.008,29.008,0,0,1,.507-4.483,7.5,7.5,0,0,0,.106-2.546c-.024-.287-.051-.526-.071-.687s-.035-.236-.035-.236l.055-.094,1.964-3.662S363.659,659.113,362.716,661.42Z" transform="translate(-225.774 -419.883)"/><path class="f" d="M439.5,712.9s-3.536-.075-5.422,1.572-11,.361-10.608,0,.361-3.037.361-3.037c-5.347-7.3-.786-10.262-.786-10.262s-2.389-11.492-2.821-15.755c-.3-2.978-.676-10.981-.876-15.551-.086-1.964-.138-3.316-.138-3.316l4.369-.88.562-.114,10.537-2.114s.291,1.964.487,3.571a16.7,16.7,0,0,1,.165,2.07c-.071.786,0,3.245,0,3.245l.358,7.375a8.377,8.377,0,0,0-.358,2.385c.071.939,1.442,14.384,1.442,14.384s2.385,8.023,1.572,8.6S439.5,712.9,439.5,712.9Z" transform="translate(-272.775 -425.82)"/><path class="d" d="M402.758,295.75a8.916,8.916,0,0,0-.244,3.273,13.456,13.456,0,0,1-14.309-.267,48.423,48.423,0,0,0-.7-5.756S403.7,293.358,402.758,295.75Z" transform="translate(-253.53 -200.922)"/><path class="e" d="M400.712,257.125a13.307,13.307,0,0,1-.66,4.169,13.445,13.445,0,0,1-26.221-3.846v-.322a13.444,13.444,0,1,1,26.887,0Z" transform="translate(-245.225 -170.98)"/><path class="d" d="M397.3,330.925c-5.186-2.016-11.857-8.675-10.192-11.787a6.961,6.961,0,0,0,.648-2.5l7.1,5.834,4.392,3.6,3.34-8.5c.283,1.784.566,3.143.566,3.143s-.99,1.387-1.572,1.462S404.74,333.8,397.3,330.925Z" transform="translate(-253.128 -215.274)"/><path class="f" d="M360.892,297.116l-5.929,99.6-7.732.507L327.21,339.469l3.285-68.563.691-14.486,8.9,7.312,4.4,3.6,3.438-8.75,6.392,5.571Z" transform="translate(-198.361 -155.679)"/><path class="d" d="M368.914,661.468a10.93,10.93,0,0,0-.6,2.016,56.971,56.971,0,0,1-16.211-5.064l-.106-.055.035-.633.02-.33,1.964-3.662S369.857,659.162,368.914,661.468Z" transform="translate(-231.972 -419.931)"/><path class="d" d="M423.633,672.861a39.781,39.781,0,0,1-4.345.5c-.086-1.964-.138-3.316-.138-3.316l4.369-.88Z" transform="translate(-272.739 -429.293)"/><path class="d" d="M442.724,667.061a30.5,30.5,0,0,1-10.969,1.033L431.7,665.6l10.537-2.114S442.528,665.435,442.724,667.061Z" transform="translate(-280.358 -425.851)"/><path class="d" d="M352.942,456.981c-16.108,2.75-30.862-5.135-30.862-5.135l.141-2.672s.365-30.288-.648-32.61-1.8-14.1-1.23-15.9-2.094-28.909-2.094-28.909l-.432-11L302,354.342l7.072-14.741a53.193,53.193,0,0,0,2.459-6.365c1.23-3.827,6.938-7.587,6.938-7.587s5.854-3.756,8.168-3.615,5.347-3.324,5.347-3.324c2.239-5.709,4.267-3.123,4.267-3.123a5.1,5.1,0,0,1-.11.845c-.786,6.267,12.706,26.068,12.9,26.418h0l1.285,31.3,1.3,39.607Z" transform="translate(-201.616 -214.281)"/><path class="c" d="M351.824,456.944c-16.108,2.75-30.865-5.135-30.865-5.135l.145-2.672s.365-30.288-.652-32.61-1.8-14.1-1.226-15.9-2.094-28.909-2.094-28.909l-.436-11-15.826-6.432,7.072-14.741a54.02,54.02,0,0,0,2.46-6.365c1.226-3.827,6.938-7.587,6.938-7.587s5.854-3.756,8.164-3.615,5.347-3.324,5.347-3.324c2.243-5.709,4.715-3.123,4.715-3.123,0,.271-.236.393-.11.845,1.729,6.078,12.274,26.068,12.466,26.418h0l1.3,31.3,1.3,39.607Z" transform="translate(-200.93 -214.245)"/><path class="d" d="M396.579,345.088c-1.733-.723-10.911-11.2-10.911-11.2V331.5c-.334-.786-2.318-.306-3.929.244l.691-14.486.786.652C384.938,323.986,396.379,344.739,396.579,345.088Z" transform="translate(-250.027 -215.651)"/><path class="c" d="M397.683,342.878c-1.737-.723-10.914-11.2-10.914-11.2v-2.385c-.334-.786-2.318-.306-3.929.244l.7-14.486.786.652C386.046,321.776,397.491,342.533,397.683,342.878Z" transform="translate(-250.695 -214.309)"/><path class="d" d="M351.744,517.105c.216,0,11.2-1.155,11.2-1.155s6.652,13.079,6.215,16.262-1.226,6-3.9,5.5-14.4.393-14.4.393Z" transform="translate(-231.279 -336.278)"/><path class="c" d="M350.634,514.9c.216,0,11.2-1.155,11.2-1.155s6.648,13.083,6.216,16.262-1.23,6-3.9,5.5-14.4.393-14.4.393Z" transform="translate(-230.606 -334.936)"/><path class="e" d="M363.787,501.05s10.082,5.418,10.3,7.072-5.131-.723-6.286-1.01a14.384,14.384,0,0,0-2.314-.361l-7.7.208Z" transform="translate(-235.481 -327.232)"/><circle class="d" cx="1.061" cy="1.061" r="1.061" transform="translate(142.679 127.992)"/><circle class="g" cx="1.061" cy="1.061" r="1.061" transform="translate(142.679 127.56)"/><circle class="d" cx="1.061" cy="1.061" r="1.061" transform="translate(144.631 173.913)"/><circle class="g" cx="1.061" cy="1.061" r="1.061" transform="translate(144.631 173.477)"/><circle class="d" cx="1.061" cy="1.061" r="1.061" transform="translate(143.735 150.952)"/><circle class="g" cx="1.061" cy="1.061" r="1.061" transform="translate(143.735 150.52)"/><path class="c" d="M446.694,395.92s.723,1.084,0,1.591.071,1.733.071,1.733-1.8,1.057-1.01,2.008.291,5.245.291,5.245l-2.169,3.591s.13,2.314.138,5.441c0,4.88-.287,11.74-1.874,14.867l.22,25.66s-7.595,2.774-13.952,1.929l-.943-41.175s1.375-23.349,1.882-27.828a46.623,46.623,0,0,0,.361-7.013,78.35,78.35,0,0,0-.943-10.262s-.786-14.093-.864-17.994c-.035-1.866.063-7.312.173-12.49.122-5.662.259-11,.259-11L426.9,318.875s1.434-.145,1.866.432a4.142,4.142,0,0,0,.629.483h0c2.475,1.674,11.221,6.821,11.221,6.821s4.84,1.925,6,4.683a40.811,40.811,0,0,0,2.526,5.5c.562.786.868,4.479.868,4.479s1.666,6.8,2.966,7.948,2.251,8.475,2.251,8.475l-11.492,9.036s-1.01,15.032-1.226,15.613S446.694,395.92,446.694,395.92Z" transform="translate(-277.444 -216.621)"/><path class="c" d="M447.087,395.727s.719,1.084,0,1.591.067,1.733.067,1.733-1.792,1.069-1.006,2.019.291,5.245.291,5.245l-2.169,3.591s.13,2.314.141,5.441c0,4.88-.287,11.74-1.874,14.867l.216,25.66s-7.606,2.774-13.956,1.929l-.939-41.175s1.375-23.349,1.882-27.828a46.2,46.2,0,0,0,.357-7.013,78.842,78.842,0,0,0-.939-10.262s-.786-14.093-.868-17.994c-.035-1.866.067-7.312.173-12.49.122-5.662.259-11,.259-11l-1.894-11.5s1.894,0,2.33.585a3.729,3.729,0,0,0,.629.483h0c2.475,1.674,11.225,6.821,11.225,6.821s4.836,1.925,6,4.683a40.169,40.169,0,0,0,2.53,5.5c.566.786.864,4.479.864,4.479s1.666,6.8,2.966,7.948,2.24,8.459,2.24,8.459l-11.492,9.036s-1.01,15.032-1.23,15.613S447.087,395.727,447.087,395.727Z" transform="translate(-277.402 -216.428)"/><path class="d" d="M434,334.705l1.037,3.025-5.461,5.5c.122-5.658.259-11,.259-11l-1.894-11.5s1.894,0,2.33.585a3.586,3.586,0,0,0,.629.479h0l4.644,13.4Z" transform="translate(-278.076 -217.758)"/><path class="c" d="M432.888,332.5l1.041,3.025-5.461,5.5c.122-5.662.259-11,.259-11l-1.9-11.5s1.9,0,2.33.585a3.929,3.929,0,0,0,.629.483h0l4.648,13.394Z" transform="translate(-277.402 -216.416)"/><path class="d" d="M400.712,257.125a13.308,13.308,0,0,1-.66,4.169.562.562,0,0,1-.424-.106c-.1-3.536-1.843-6.856-3.984-9.681a10.17,10.17,0,0,0-2.161-2.239,4.228,4.228,0,0,0-2.931-.829c-1.179.161-2.22.963-3.41,1.065-1.572.13-2.978-.959-4.538-1.014a4.459,4.459,0,0,0-3.336,1.548,9.151,9.151,0,0,0-1.788,3.316,19.4,19.4,0,0,0-1,5.72c-.02,1.1-.126,2.479-1.147,2.88a5.87,5.87,0,0,0-1.481-4.483l-.024-.024v-.322a13.444,13.444,0,1,1,26.887,0Z" transform="translate(-245.225 -170.98)"/><path class="h" d="M386.493,222.21a9.256,9.256,0,0,0-6.53-.511c-1.088.322-2.114.845-3.218,1.108-2.357.57-5.108-.047-7.131,1.332a8.529,8.529,0,0,0-2.428,3.233l-1.572,2.994a19.428,19.428,0,0,0-2.078,5.108,6.521,6.521,0,0,0,1,5.273c.833,1.057,2.063,1.721,2.966,2.715a5.893,5.893,0,0,1,1.477,4.479c1.025-.393,1.124-1.776,1.147-2.876a19.4,19.4,0,0,1,1-5.72,9.119,9.119,0,0,1,1.788-3.316,4.467,4.467,0,0,1,3.336-1.548c1.572.055,2.982,1.139,4.538,1.01,1.179-.1,2.224-.9,3.41-1.061a4.212,4.212,0,0,1,2.931.829,10.066,10.066,0,0,1,2.157,2.239c2.145,2.825,3.886,6.137,3.988,9.681.444.326,1.084-.1,1.3-.6a14.36,14.36,0,0,1,.507-1.572,5.794,5.794,0,0,1,1.422-1.265,5.561,5.561,0,0,0,1.485-4.451,22.178,22.178,0,0,1-.055-4.84c.185-.974.6-1.886.829-2.848a3.724,3.724,0,0,0-.283-2.872c-.786-1.218-2.44-1.458-3.882-1.572-1.638-.141-3.1.039-4.149-1.34a15.047,15.047,0,0,0-1.65-2.019C388.595,223.592,386.493,222.3,386.493,222.21Z" transform="translate(-238.88 -157.41)"/><path class="d" d="M305.166,422.721l-4.106-7.591-1.3,11.712a54.282,54.282,0,0,1,.578,6c-.145.8,2.962,7.948,2.962,7.948s10.266,18.285,14.458,19.228L331.922,449.9l-3.756-4.77s-1.3-.507-1.627,0c0,0-6.974-12-7.7-12.867a4.334,4.334,0,0,1-.581-2.6s-1.084-1.155-.723-2.239-2.094-4.844-2.094-4.844l2.24-2.094Z" transform="translate(-200.256 -275.069)"/><path class="c" d="M299.935,412.93l-1.084.864-1.3,11.712a54.3,54.3,0,0,1,.578,6c-.145.8,2.966,7.948,2.966,7.948s10.262,18.285,14.454,19.228l14.168-10.121-3.76-4.77s-1.3-.507-1.627,0c0,0-6.974-12-7.7-12.867a4.32,4.32,0,0,1-.578-2.6s-1.084-1.155-.723-2.239-2.1-4.844-2.1-4.844l2.239-2.094Z" transform="translate(-198.914 -273.733)"/><path class="d" d="M462.224,518.9c.786.955.291,5.241.291,5.241l-2.169,3.591s.13,2.318.138,5.441l-3.646,1.139a2.165,2.165,0,0,1-2.809-2.133l.629-20.277,8.506,3.253c-.723.5.071,1.737.071,1.737S461.43,517.943,462.224,518.9Z" transform="translate(-293.913 -333.819)"/><path class="c" d="M463.328,517.793c.786.955.291,5.245.291,5.245l-2.169,3.591s.13,2.314.141,5.442l-3.713,1.159a2.122,2.122,0,0,1-2.75-2.09l.633-20.34,8.51,3.253c-.727.5.067,1.733.067,1.733S462.542,516.843,463.328,517.793Z" transform="translate(-294.581 -333.151)"/><path class="e" d="M472.655,499.111s-.578,3.689-2.023,3.905-2.094,5.968-3.536,5.764-.487-5.347-.436-6.345-1.572-5.131-.358-6.07,5.056,0,5.056,0Z" transform="translate(-301.091 -324.134)"/><path class="d" d="M473.439,423.19l2.727-5.5a35.71,35.71,0,0,1,1.084,6.432c0,2.239,1.517,2.459,1.517,2.459s1.662,1.964.786,3.395-1.23,4.99-1.23,4.99.287,6.793-1.014,7.732-1.572,3.182-1.572,3.182-2.389,4.263-2.314,5.276-3.324,7.877-3.324,7.877,1.662-8.53-8.023-12.215c0,0-.075-2.9.648-3.689s1.85-1.155,1.143-5.166a46.854,46.854,0,0,1-.2-9.767c0-.963,2.169-6.966,2.169-6.966Z" transform="translate(-298.799 -276.623)"/><path class="c" d="M475.887,415.69l2.381.786a35.594,35.594,0,0,1,1.088,6.432c0,2.239,1.517,2.46,1.517,2.46s1.662,1.964.786,3.395-1.226,4.99-1.226,4.99.287,6.793-1.014,7.732a5.334,5.334,0,0,0-1.591,3.182s-2.385,4.263-2.31,5.276-3.328,7.877-3.328,7.877,1.666-8.53-8.023-12.215c0,0-.071-2.9.652-3.689s1.85-1.155,1.143-5.166a46.856,46.856,0,0,1-.2-9.767c0-.963,2.169-6.966,2.169-6.966Z" transform="translate(-300.068 -275.409)"/><path class="d" d="M360.15,776.577s3.8-2.385,6.286-.652S360.15,776.577,360.15,776.577Z" transform="translate(-236.92 -493.728)"/><path class="d" d="M435.21,759.757a7.683,7.683,0,0,1,6.18,2.6C444.211,765.4,435.21,759.757,435.21,759.757Z" transform="translate(-282.489 -484.283)"/><g class="i" transform="translate(124.501 72.551)"><path d="M405.2,261.769a5.828,5.828,0,0,0-1.426,1.269,14.368,14.368,0,0,0-.5,1.572c-.22.511-.86.927-1.3.605-.1-3.536-1.847-6.856-3.988-9.685a10.065,10.065,0,0,0-2.157-2.239,4.224,4.224,0,0,0-2.935-.829c-1.179.161-2.216.963-3.406,1.061-1.572.134-2.982-.955-4.542-1.01a4.448,4.448,0,0,0-3.332,1.552,9.1,9.1,0,0,0-1.788,3.312,19.425,19.425,0,0,0-1,5.72c-.024,1.1-.126,2.463-1.139,2.872a5.377,5.377,0,0,1,0,.872c1.022-.393,1.124-1.776,1.147-2.876a19.4,19.4,0,0,1,1-5.72,9.119,9.119,0,0,1,1.788-3.316,4.459,4.459,0,0,1,3.332-1.548c1.572.055,2.986,1.139,4.542,1.01,1.179-.1,2.224-.9,3.406-1.061a4.223,4.223,0,0,1,2.935.829,10.066,10.066,0,0,1,2.157,2.239c2.141,2.825,3.886,6.137,3.988,9.681.444.326,1.084-.1,1.3-.6a15.25,15.25,0,0,1,.5-1.572,5.814,5.814,0,0,1,1.426-1.265,5.561,5.561,0,0,0,1.485-4.451v-.149A5.158,5.158,0,0,1,405.2,261.769Z" transform="translate(-372.063 -248.85)"/><path d="M367.516,266.309c-.9-.994-2.137-1.658-2.966-2.711a5.752,5.752,0,0,1-1.143-3.218,6.05,6.05,0,0,0,1.143,4.082c.829,1.057,2.063,1.721,2.966,2.715a5.893,5.893,0,0,1,1.481,3.5,5.893,5.893,0,0,0-1.481-4.373Z" transform="translate(-363.385 -253.669)"/><path d="M451.979,244.078c-.232.963-.644,1.878-.833,2.848a9.076,9.076,0,0,0-.122,1.964,7.627,7.627,0,0,1,.122-1.116c.189-.974.6-1.886.833-2.848a4.832,4.832,0,0,0,.13-1.627,5.46,5.46,0,0,1-.13.778Z" transform="translate(-416.586 -243.3)"/></g><ellipse class="a" cx="38.283" cy="6.149" rx="38.283" ry="6.149" transform="translate(14.156 286.527)"/><rect class="j" width="2.463" height="55.464" transform="translate(51.21 174.887)"/><path class="g" d="M170.866,638.694l-.153,2.5-.22,3.536-.09,1.469-.216,3.536-.094,1.469-.22,3.536-2.483,40.1a6.8,6.8,0,0,1-6.781,6.373H147.7a6.793,6.793,0,0,1-6.777-6.373l-2.471-40.13-.22-3.536-.09-1.469-.22-3.536-.09-1.469-.22-3.536-.157-2.5a3.536,3.536,0,0,1,3.536-3.736h26.406a3.513,3.513,0,0,1,3.473,3.764Z" transform="translate(-101.713 -408.512)"/><path class="k" d="M123.7,592.24l-.22,3.524H90.8l-.22-3.524Z" transform="translate(-54.701 -359.559)"/><path class="k" d="M123.87,604.95l-.216,3.528H91.59l-.22-3.528Z" transform="translate(-55.18 -367.275)"/><path class="k" d="M124.039,617.68l-.216,3.524H92.38l-.22-3.524Z" transform="translate(-55.66 -375.004)"/><path class="f" d="M79.378,539.729c14.344,10.38,20.332,26.614,20.332,26.614s-17.287-.593-31.635-10.973S47.75,528.76,47.75,528.76,65.029,529.349,79.378,539.729Z" transform="translate(-47.258 -344.055)"/><path class="l" d="M47.72,528.76s17.947,9.96,23.7,18.207,28.268,19.377,28.268,19.377" transform="translate(-47.24 -344.055)"/><path class="f" d="M125.216,494.232a34.883,34.883,0,0,1,11.072,14.482,34.814,34.814,0,0,1-17.22-5.968A34.813,34.813,0,0,1,108,488.26,34.787,34.787,0,0,1,125.216,494.232Z" transform="translate(-83.837 -319.467)"/><path class="l" d="M108,488.26s9.767,5.422,12.9,9.909,15.389,10.545,15.389,10.545" transform="translate(-83.837 -319.467)"/><path class="f" d="M192.057,519.145c-8.97,9.858-10.867,22.74-10.867,22.74s12.647-3.1,21.609-12.965,10.867-22.74,10.867-22.74S201.027,509.288,192.057,519.145Z" transform="translate(-128.271 -330.346)"/><path class="l" d="M213.674,506.19S201.99,516.3,199.019,523.257s-17.829,18.635-17.829,18.635" transform="translate(-128.271 -330.352)"/><path class="m" d="M910.65,368.459s-6.487-32.272-4-36.287c0,0,.09-3.732-.059-8.49v-.546a12.083,12.083,0,0,0,1.363.786,11.032,11.032,0,0,0,7.426.959l-1.964-2.188a3.627,3.627,0,0,1-1.065-1.78,3.729,3.729,0,0,1,.424-1.925c1.866-4.715,1.964-10.643-1.63-14.242-3.037-3.025-3.776-6.931-7.072-9.693-2.408-2.023-3.733-4.99-4.982-7.858a44.2,44.2,0,0,1-2.727-7.437c-.471-2.008-.66-4.086-1.308-6.047a7.7,7.7,0,0,0-3.76-4.742,14.19,14.19,0,0,1-2.043-.9,8.82,8.82,0,0,1-1.882-2.212c-2.974-3.929-12.934-1.615-17.649-.02a9.928,9.928,0,0,0-3.489,1.933l.043-.071c.036-.059.079-.118.118-.177a6.2,6.2,0,0,0-1.32,1.473,35.327,35.327,0,0,0-1.548,3.536c-.692,1.395-4.538,5.288-2.884,6.856a1.392,1.392,0,0,0,.393.251,3.4,3.4,0,0,0,1.964.2l-.071.169a11.485,11.485,0,0,0-.853,4.357,11.792,11.792,0,0,0,11.9,11.688,12.009,12.009,0,0,0,3.642-.562c.028.149.051.3.079.448a1.385,1.385,0,0,0,.027.177h0l-.208.291a.394.394,0,0,0-.035-.051l-6.168,8.62c-.943.664-6.373,4.593-6.679,7.54-.322,3.226-.644,7-.644,7l-.043.809a2.428,2.428,0,0,1-1.964.53c-1.925-.314-1.925,7.072-1.925,7.072s-1.281,1.179-2.161.157-3.206,2.44-3.206,2.44l-14.576.629h0l-.334.02-.786-2.432a1.026,1.026,0,0,0-1.285-.656,1.185,1.185,0,0,0-.177.075l-.055.031-.1.071-.051.047a.783.783,0,0,0-.078.083l-.047.055-.024.024h0a.99.99,0,0,0-.141.88l.676,2.086c-2.813.566-5.689,2.161-3.344,6.553l-11.889-2.2,3.846,3.23,19.857,4.1c-.263.471-.09,1.155.731,2.118,3.536,4.153,9.979,5.28,12.573,5.571a22.323,22.323,0,0,0,2.55,4.322l-.224,4.137s-6.565,31.533-7.767,33.132a18.7,18.7,0,0,0,1.662-2.188c-1.906,6.479-4.569,15.346-5.269,16.674-1.124,2.122-2.165,10.706-.884,11.256a10.777,10.777,0,0,0,3.12-.035v.711l-.071,26.948s.322,16.529-.562,18.1a15.411,15.411,0,0,0-1.12,4.88s-3.536,6.518-6.337,9.139a.424.424,0,0,1-.063.055l-.086-.613s-3.367,4.251-10.816,4.011c0,0-4.483,2.915,2.165,3.072s15.138-.236,15.138-.236,5.929-9.036,10.895-7.858v6.848h1.521v-6.958a6.235,6.235,0,0,0,2.707-4.1,4.982,4.982,0,0,0-1.776-4.609,2.946,2.946,0,0,1-.97-2.153l-.055.047a4.147,4.147,0,0,0-.051-.424c-.436-3.536-.982-10.832.947-16.23,2.644-7.4,3.446-17.711,1.521-23.848a54.834,54.834,0,0,1-1.528-5.976c-.047-.255-.09-.5-.13-.727a30.975,30.975,0,0,1,3.9.786c4.459,1.23,14.215,1.458,22.544,1.391.02.228.043.468.071.707a25.724,25.724,0,0,0,.927,4.919c1.045,3.143,1.524,17,1.524,17s1.348,11.394.613,16.03c-.393,2.577-.786,5.167-1.01,7.767v.051s-2.208,6.286-3.823,9.7c-.039.086-.082.173-.122.255a5.106,5.106,0,0,0-1.261.279s-2.165,4.322-4.322,5.037-1.442,3.068,3.442,2.2,12.258-1.572,12.258-1.572l.318-4.408,1.5-1.878-.393,4.4,1.6-.314-.212-5.347L904,472.123s2.966-2.64-1.442-7.834v.114c-.047-.075-.09-.153-.141-.228v-.024c-.731-1.132-1.312-3.241-.247-6.986,1.925-6.766,3.045-12.906,3.045-12.906s4.3-16.45-.868-24.233h.228a13.091,13.091,0,0,1-1.112-3.457q-.039-.212-.071-.436a28.349,28.349,0,0,0,10.635-2.4C914.017,413.712,912.175,374.674,910.65,368.459Zm-48.534-27.227v.079l-.786.039Zm-2.7.373a.869.869,0,0,0-.354.169,3.488,3.488,0,0,0-.617,1.615l-1.226-.275s-.86-.185-2.1-.393l-.585-.589C856.152,342,857.826,341.8,859.421,341.605Z" transform="translate(-517.599 -183.129)"/><path class="n" d="M971.788,742.316l-.468,5.567,1.568-.314-.236-6.039Z" transform="translate(-589.407 -450.194)"/><path class="o" d="M895.689,683.379c-1.89,5.383-1.355,12.647-.931,16.175.157,1.3.3,2.1.3,2.1s-2.825,6.435-3.061,6.679-8.313,5.174-8.313,5.174l-5.646,3.3s-5.728-2.511-2.982-3.375a4.169,4.169,0,0,0,1.481-1.01c2.75-2.613,6.2-9.107,6.2-9.107a15.663,15.663,0,0,1,1.1-4.864c.864-1.568.55-18.042.55-18.042l.067-26.854v-3.5l10.745.079a24.319,24.319,0,0,0,.464,3.536,54.048,54.048,0,0,0,1.5,5.956C899.06,665.746,898.274,676,895.689,683.379Z" transform="translate(-549.073 -417.691)"/><path class="d" d="M895.061,778.16s-2.825,6.435-3.061,6.679-8.313,5.174-8.313,5.174l-5.646,3.3s-5.728-2.51-2.982-3.375a4.171,4.171,0,0,0,1.481-1.01l.244,1.717,1.882-.079,16.108-14.494C894.915,777.366,895.061,778.16,895.061,778.16Z" transform="translate(-549.073 -494.199)"/><path class="n" d="M879.443,777l-16.2,14.592-1.882.079-.393-2.75s-3.292,4.235-10.608,4c0,0-4.392,2.9,2.118,3.061s14.824-.236,14.824-.236,5.807-9.036,10.667-7.858v6.824h1.493v-6.887a6.2,6.2,0,0,0,2.648-4.086,5.005,5.005,0,0,0-1.733-4.589,2.959,2.959,0,0,1-.935-2.149Z" transform="translate(-533.652 -494.764)"/><path class="o" d="M1001.005,691.319c-1.045,3.732-.475,5.834.24,6.962v.024a12.868,12.868,0,0,1,1.878,4.585l.063.354-7.371,10.745-4,1.572s-6.432-2.2-5.257-2.825a6.02,6.02,0,0,0,1.281-2.1c1.572-3.4,3.74-9.669,3.74-9.669v-.051c.228-2.589.589-5.17.99-7.74.719-4.624-.6-15.975-.6-15.975s-.471-13.8-1.493-16.941a25.912,25.912,0,0,1-.915-4.888c-.212-1.964-.259-3.583-.259-3.583s4.235-5.893,12,.471a8.541,8.541,0,0,1,1.623,1.76c5.363,7.63,1.045,24.438,1.045,24.438S1002.887,684.573,1001.005,691.319Z" transform="translate(-617.132 -417.239)"/><path class="d" d="M1003.216,778.776l-7.371,10.745-4,1.572s-6.432-2.2-5.257-2.825a6.02,6.02,0,0,0,1.281-2.1A5.083,5.083,0,0,1,992,788.74l3.45-.55s4.55-8.942,5.571-9.488.157-4.082.157-4.082v-.9c.027.031.051.067.082.1v.024a12.865,12.865,0,0,1,1.878,4.585Z" transform="translate(-617.15 -492.772)"/><path class="n" d="M984.045,789.324s-1.964-3.607-5.728-2.275c0,0-2.118,4.322-4.235,5.021s-1.411,3.057,3.375,2.2,12-1.572,12-1.572l.314-4.4,4.864-6.2s2.9-2.628-1.414-7.8v.9s.864,3.536-.157,4.082-5.555,9.492-5.555,9.492Z" transform="translate(-608.956 -493.125)"/><path class="d" d="M910.9,650.109a24.341,24.341,0,0,0,.464,3.536,49.289,49.289,0,0,0-11.221-.114v-3.5Z" transform="translate(-564.753 -417.679)"/><path class="d" d="M1007.842,654.994s-6.286.306-13.783.369c-.212-1.964-.259-3.583-.259-3.583s4.235-5.893,12,.471a8.539,8.539,0,0,1,1.623,1.76A9.591,9.591,0,0,0,1007.842,654.994Z" transform="translate(-621.615 -417.233)"/><path class="n" d="M945.376,547.942s-27.534,1.332-35.926-1.021-16.71-.314-17.963-.86-.236-9.1.864-11.217,7.135-23.534,7.135-23.534l5.807-30.276,6.117-1.686.432-.122,10.659-2.939,7.811-2.157s15.531,60.635,14.2,65.106a11.449,11.449,0,0,0-.228,5.261A13.139,13.139,0,0,0,945.376,547.942Z" transform="translate(-559.149 -310.888)"/><path class="p" d="M871.528,439s-5.5,5.893-1.336,9.178,6.9.314,6.9.314Z" transform="translate(-545.625 -289.56)"/><path class="d" d="M871.528,439s-5.5,5.893-1.336,9.178,6.9.314,6.9.314Z" transform="translate(-545.625 -289.56)"/><path class="o" d="M970.927,323.78s-.644.613-1.615,1.517c-1.383,1.293-3.43,3.182-5.245,4.766-2.515,2.188-4.589,3.8-3.846,2.424s.6-3.76.232-6c-.027-.149-.051-.3-.079-.444a41.164,41.164,0,0,0-1.214-4.856,84.025,84.025,0,0,1,6.31-7.32c.837-.786,1.422-1.108,1.458-.562a18.251,18.251,0,0,0,1.273,4.078c.02.055.039.106.063.161.456,1.179.97,2.389,1.422,3.434C970.377,322.586,970.927,323.78,970.927,323.78Z" transform="translate(-600.585 -213.088)"/><path class="d" d="M968.263,317.556a11.661,11.661,0,0,1-7.811,8.942,40.908,40.908,0,0,0-1.293-5.3s7.65-9.881,7.767-7.881A18.689,18.689,0,0,0,968.263,317.556Z" transform="translate(-600.585 -213.095)"/><path class="d" d="M937.78,351.845l.99-1.395s.656,4,3.068,2.236,2.53,13.276,2.53,13.276l-2.589,38.711-18.709-1.12.53-18.705,2.118-9.429,5.237-13.708,3.116-4.53Z" transform="translate(-578.674 -235.801)"/><path class="n" d="M944.387,366.541l-2.357,35-.248,3.709-10.431-.625-.393-.024-7.858-.471.53-18.709,2.118-9.429,5.237-13.708,3.116-4.53,3.709-5.355.99-1.391s.656,4,3.068,2.236l.051-.035h0C944.277,351.717,944.387,366.541,944.387,366.541Z" transform="translate(-578.692 -236.141)"/><path class="c" d="M893.045,406.26s-.939,1.964-2.825,1.646-1.882,7.072-1.882,7.072-1.253,1.179-2.118.157-3.143,2.432-3.143,2.432L868.8,418.2s6.353,2.9,5.108,11.688c0,0,21.57-1.336,22.277-3.375S893.045,406.26,893.045,406.26Z" transform="translate(-545.726 -269.684)"/><path class="q" d="M893.045,406.26s-.939,1.964-2.825,1.646-1.882,7.072-1.882,7.072-1.253,1.179-2.118.157-3.143,2.432-3.143,2.432L868.8,418.2s6.353,2.9,5.108,11.688c0,0,21.57-1.336,22.277-3.375S893.045,406.26,893.045,406.26Z" transform="translate(-545.726 -269.684)"/><path class="c" d="M777.66,389.76l3.764,3.214,30.983,6.51-3.842-3.921Z" transform="translate(-471.834 -236.631)"/><path class="c" d="M926,351.474a79.277,79.277,0,0,0-3.218,8.321c-1.026,2.927-1.882,5.5-1.882,5.5s-2,13.02-3.021,15.374-.468,11.531-.468,11.531L913.6,414.866s-1.725,11.688-4.389,18.67c-2.628,6.872-5.555,10.093-5.646,10.2,1.179-1.6,7.6-33,7.6-33l2.122-39.611s.31-3.764.625-6.982,6.679-7.61,6.679-7.61l6.137-8.726C927.352,348.625,926.939,350.063,926,351.474Z" transform="translate(-566.835 -234.192)"/><path class="o" d="M897.931,473.294s-9.036-.393-13.413-5.65,10.117-2.1,10.117-2.1l3.768.864Z" transform="translate(-554.768 -305.105)"/><path class="d" d="M976.191,467.785a11.449,11.449,0,0,0-.228,5.261c-9.858.7-20.4-1.964-20.4-1.964-1.964,1.807-7.139,4.471-7.139,4.471L945.6,440.586c-1.8-4.715-2.51-29.416-2.51-29.416s.161-1.293.393-3.23a.372.372,0,0,1,.02-.145c.7-5.41,2.1-15.566,2.782-16.937.943-1.886-2.9-6.9-2.9-6.9l1.748-14.91.212-1.8c3.685-1.646,6.51-6.9,6.51-6.9l2.169-3.8h0c2.357-1.513,2.479,13.311,2.479,13.311l-2.357,35,7.811-2.157S977.523,463.314,976.191,467.785Z" transform="translate(-590.829 -239.434)"/><path class="c" d="M987.036,455.732c-10.745,5.335-30.276.393-30.276.393-1.964,1.807-7.139,4.471-7.139,4.471L946.8,425.628c-1.8-4.715-2.507-29.416-2.507-29.416s2.271-18.43,3.214-20.312a3.027,3.027,0,0,0-.185-2.247A28.437,28.437,0,0,1,945.6,360.5l.754-6.408.208-1.8c3.689-1.65,6.514-6.907,6.514-6.907l1.964-3.442,3.615-6.341,1.713-3,.291.263,2.22,2.012,2.357,1.964c3.076,2.593,8.392,7.158,11.135,9.952,2.412,2.46,3.174,12.026,3.395,19.228.145,4.742.059,8.459.059,8.459-2.432,4,3.929,36.146,3.929,36.146C985.233,416.836,987.036,455.732,987.036,455.732Z" transform="translate(-591.557 -224.964)"/><path class="q" d="M949.5,364.084s-7.375,14.038-6.518,19.373,3.292,11.374,2.118,12.785a4.341,4.341,0,0,1-3.453,1.725c-1.179.079-4.322,2.275-4.322,2.511s-2.9.236-5.5,1.336a34.247,34.247,0,0,1-6.432,1.725s-7.465-.236-8.16.471-1.411,4.939.079,8.314,3.143,5.893,4.392,6.353,9.178-2.2,15.609-2.825,13.413-5.724,13.413-5.724,7.689-2.75,9.036-7.375-1.646-30.04-1.646-30.04S955.85,360.866,949.5,364.084Z" transform="translate(-574.645 -243.742)"/><path class="q" d="M947.115,361.085s-7.375,14.042-6.51,19.373,3.292,11.374,2.114,12.789a4.322,4.322,0,0,1-3.45,1.725c-1.179.079-4.322,2.275-4.322,2.511s-2.9.236-5.5,1.332a34.582,34.582,0,0,1-6.432,1.725s-7.465-.236-8.156.471-1.414,4.943.079,8.314,3.143,5.893,4.393,6.353,9.178-2.2,15.609-2.821,13.413-5.728,13.413-5.728,7.685-2.75,9.017-7.371-1.646-30.044-1.646-30.044S953.468,357.872,947.115,361.085Z" transform="translate(-573.205 -241.922)"/><path class="c" d="M948.919,362.292s-7.375,14.042-6.51,19.373,3.292,11.374,2.118,12.785a4.322,4.322,0,0,1-3.453,1.729c-1.179.079-4.322,2.275-4.322,2.507s-2.9.236-5.5,1.336a34.326,34.326,0,0,1-6.432,1.725s-7.465-.236-8.16.471-1.411,4.943.079,8.314,3.143,5.893,4.393,6.353,9.178-2.2,15.609-2.825,13.413-5.724,13.413-5.724,7.689-2.75,9.036-7.375-1.627-30.04-1.627-30.04S955.268,359.094,948.919,362.292Z" transform="translate(-574.298 -242.657)"/><path class="d" d="M992.983,458.458s-5.893-1.179-3.843.786,2.039,3.685,4.55,3.607S992.983,458.458,992.983,458.458Z" transform="translate(-618.523 -301.161)"/><path class="d" d="M1023.865,566.58s-2.664,1.8,2.432,5.96S1023.865,566.58,1023.865,566.58Z" transform="translate(-639.445 -367.016)"/><path class="d" d="M1011.823,604.31c0,.236-.943,8.644,2.585,10.746S1011.823,604.31,1011.823,604.31Z" transform="translate(-632.488 -389.922)"/><path class="o" d="M859.073,436.59c-2.844.1-8.989.967-5.8,6.911,2.817,5.261,7.551,1.744,10.215-.923A10.038,10.038,0,0,0,859.073,436.59Z" transform="translate(-535.755 -288.097)"/><path class="o" d="M881.39,451Z" transform="translate(-553.37 -296.846)"/><path class="o" d="M880.74,451.522l.118-.122Z" transform="translate(-552.975 -297.089)"/><path class="d" d="M968.422,337.437c-3.017,2.063-5.548,3.8-6.043,4.165-1.352,1-3.929,6.883-5.591,9.885-1.324,2.416-5.626,3.037-7.249,3.19l.208-1.8c3.689-1.65,6.514-6.907,6.514-6.907l7.292-12.785,2.511,2.283Z" transform="translate(-594.744 -225.322)"/><path class="r" d="M968.422,336.837c-3.017,2.063-5.548,3.8-6.043,4.169-1.352,1-3.929,6.879-5.591,9.881-1.324,2.416-5.626,3.037-7.249,3.19l.208-1.8c3.689-1.65,6.514-6.907,6.514-6.907l7.292-12.785,2.511,2.275S967.008,335.643,968.422,336.837Z" transform="translate(-594.744 -224.958)"/><path class="o" d="M946.8,299.915A11.653,11.653,0,1,1,936.9,288.4,11.634,11.634,0,0,1,946.8,299.915Z" transform="translate(-578.933 -198.046)"/><path class="d" d="M968.447,339.105a10.357,10.357,0,0,1-3.76-4.039c-.656-1.3-1.092-2.793-2.212-3.713a9.824,9.824,0,0,0-3.615-1.395c-4.133-1.222-7.6-4.994-7.728-9.3-.063-2.027.57-4.051.283-6.058a6.711,6.711,0,0,0-1.312-3.123,10.757,10.757,0,0,0-1.136-1.222c-.55-.519-1.128-1.022-1.63-1.572a6.1,6.1,0,0,1-.825-1.12,5.389,5.389,0,0,1-.452-1.041c-.786-2.4-.071-5.257-.935-7.689l-.047-.134a2.5,2.5,0,0,0-1.913-1.8c-.923-.067-1.713.7-2.593,1.041-1.843.715-3.831-.5-5.367-1.744s-3.269-2.66-5.221-2.385c-1.293.185-2.314,1.065-3.5,1.52a4.913,4.913,0,0,1-.829.24,11.649,11.649,0,0,1,22.461,4.341,11.529,11.529,0,0,1-.255,2.432c.02.055.039.106.063.161.456,1.179.97,2.389,1.422,3.434l2.22,2.012,2.357,1.964c3.076,2.593,8.392,7.158,11.135,9.952C967.465,322.34,968.22,331.9,968.447,339.105Z" transform="translate(-580.24 -198.046)"/><path class="s" d="M922.427,274.342c.562-1.143.841-2.424,1.513-3.509a8.359,8.359,0,0,1,4.475-3.186c4.616-1.591,14.372-3.9,17.287,0a8.506,8.506,0,0,0,1.843,2.2,13.683,13.683,0,0,0,2,.9,7.643,7.643,0,0,1,3.677,4.715c.633,1.941.821,4.023,1.285,6.023a44.294,44.294,0,0,0,2.672,7.414c1.222,2.852,2.518,5.811,4.876,7.826,3.218,2.75,3.929,6.644,6.915,9.661,3.536,3.583,3.422,9.5,1.6,14.191a3.9,3.9,0,0,0-.417,1.917,3.76,3.76,0,0,0,1.041,1.776l1.933,2.181a10.869,10.869,0,0,1-11.877-5.477c-.656-1.3-1.092-2.79-2.216-3.713a9.8,9.8,0,0,0-3.611-1.391c-4.133-1.226-7.6-5-7.728-9.308-.063-2.023.57-4.047.283-6.051a6.68,6.68,0,0,0-1.316-3.143c-1.08-1.41-2.711-2.357-3.591-3.929-1.489-2.628-.357-6.043-1.43-8.864a2.507,2.507,0,0,0-1.913-1.8c-.923-.067-1.713.7-2.6,1.041-1.839.715-3.827-.5-5.363-1.744s-3.269-2.66-5.225-2.381c-1.293.181-2.31,1.061-3.5,1.52-.88.338-2.664.64-3.434-.1C917.979,279.618,921.747,275.74,922.427,274.342Z" transform="translate(-576.326 -184.229)"/><path class="d" d="M962.21,325.583c-.66-1.3-1.092-2.79-2.216-3.709a9.8,9.8,0,0,0-3.615-1.395c-4.129-1.222-7.595-5-7.728-9.3-.063-2.023.57-4.051.287-6.054A6.721,6.721,0,0,0,947.622,302c-1.084-1.41-2.715-2.357-3.591-3.929-1.489-2.625-.358-6.039-1.434-8.864a2.515,2.515,0,0,0-1.91-1.8c-.919-.071-1.717.7-2.6,1.045-1.839.715-3.831-.5-5.363-1.744s-3.273-2.66-5.225-2.385c-1.293.185-2.314,1.065-3.5,1.52-.88.338-2.668.644-3.438-.1-1.619-1.572,2.149-5.441,2.825-6.832a37.633,37.633,0,0,1,1.517-3.509c.035-.059.075-.118.114-.177a6.238,6.238,0,0,0-1.293,1.469c-.672,1.084-.951,2.357-1.513,3.509-.68,1.391-4.447,5.273-2.825,6.832.786.746,2.554.44,3.434.1,1.179-.46,2.208-1.34,3.5-1.521,1.964-.279,3.693,1.139,5.225,2.381s3.536,2.46,5.367,1.744c.88-.342,1.65-1.112,2.593-1.041a2.5,2.5,0,0,1,1.913,1.8c1.073,2.821-.059,6.235,1.43,8.864.88,1.544,2.51,2.511,3.591,3.929a6.679,6.679,0,0,1,1.316,3.143c.287,2-.346,4.027-.283,6.051.13,4.322,3.595,8.082,7.728,9.308a9.853,9.853,0,0,1,3.611,1.391c1.128.923,1.572,2.416,2.216,3.713a10.87,10.87,0,0,0,11.877,5.477L972,331.346A10.987,10.987,0,0,1,962.21,325.583Z" transform="translate(-576.195 -190.134)"/><path class="d" d="M951.694,352.013a79.238,79.238,0,0,0-3.218,8.321c-1.151-.448-2.2-3.3-2.2-3.3l6.137-8.73C953.046,349.164,952.633,350.6,951.694,352.013Z" transform="translate(-592.765 -234.496)"/><path class="r" d="M952.294,351.419a79.266,79.266,0,0,0-3.218,8.321c-1.151-.444-2.2-3.3-2.2-3.3l6.137-8.726C953.646,348.57,953.233,350.008,952.294,351.419Z" transform="translate(-593.129 -234.137)"/><path class="t" d="M864.509,440.71l-3.4-10.73a1,1,0,0,1,.652-1.261h0a1.006,1.006,0,0,1,1.257.652l3.4,10.718-.338,2.243Z" transform="translate(-541.026 -283.291)"/><path class="u" d="M861.678,429.061h0a1.006,1.006,0,0,1,1.261.652l3.4,10.718-.255,1.682.248.259.338-2.243-3.422-10.718a1.006,1.006,0,0,0-1.257-.652h0a1.006,1.006,0,0,0-.523.393A1.368,1.368,0,0,1,861.678,429.061Z" transform="translate(-541.276 -283.315)"/><path class="v" d="M822.6,399.745l1.909-.605-.279,1.839-.059.4-.558-.581Z" transform="translate(-499.118 -242.326)"/><path class="w" d="M872.42,461.8a.391.391,0,0,1,.122-.1.173.173,0,0,1,.185,0,.487.487,0,0,1,.067.106.338.338,0,0,0,.244.161l-.059.393Z" transform="translate(-547.924 -303.325)"/><path class="o" d="M861.13,441.7s6.825-.039,5.218,2.864a6.138,6.138,0,0,1-4.117,3.253Z" transform="translate(-541.07 -291.2)"/><path class="f" d="M614.369,110.05h-.295a33.6,33.6,0,0,0-28.056,15.358,33.6,33.6,0,0,0-28.056-15.358h-.295a33.4,33.4,0,0,0-33.077,33.376c0,10.926,4.785,26.43,14.117,39.187,17.778,24.308,47.312,45.575,47.312,45.575s29.534-21.263,47.308-45.575c9.335-12.757,14.117-28.261,14.117-39.187a33.4,33.4,0,0,0-33.073-33.376Zm-4.216,74.433A6.62,6.62,0,0,1,604,180.232h-7.009a2.216,2.216,0,0,1-2.086-1.509l-2.153-6.487-6.813,23.805a2.2,2.2,0,0,1-2.114,1.591h-.138a2.177,2.177,0,0,1-2.043-1.823l-7.021-42.228-5.131,24.988a2.188,2.188,0,0,1-2.125,1.662h-9.873a2.2,2.2,0,1,1,0-4.389h8.145l7.268-33.6a2.2,2.2,0,0,1,4.322.181L584.4,185.5l6.106-21.3a2.161,2.161,0,0,1,2.055-1.572h.043a2.192,2.192,0,0,1,2.082,1.509l3.894,11.712h5.335a6.585,6.585,0,1,1,6.255,8.644Z" transform="translate(-336.753 -89.851)"/></g></svg>